<svg width="140" height="140" viewBox="0 0 140 140" fill="none" xmlns="http://www.w3.org/2000/svg">
<path d="M61.4615 37.3833C63.7328 43.2512 59.6881 50.2864 54.5244 52.2852C49.3607 54.284 41.8459 51.7232 39.5745 45.8554C37.3032 39.9875 40.2471 31.3275 45.4108 29.3287C52.2963 26.6634 59.1901 31.5154 61.4615 37.3833Z" fill="#D1D5DB"/>
<path d="M64.3726 37.1307C63.1482 43.3026 68.3466 49.534 73.7778 50.6114C79.209 51.6889 86.169 47.8694 87.3934 41.6975C88.6177 35.5257 84.2231 27.5038 78.7919 26.4264C71.5497 24.9897 65.5969 30.9589 64.3726 37.1307Z" fill="#D1D5DB"/>
<path d="M117.762 82.1277C117.762 102.892 97.6174 110.61 70.1393 110.61C42.6612 110.61 22.9727 102.892 22.9727 82.1277C22.9727 57.9747 42.6612 36.556 70.1393 36.556C97.6174 36.556 117.762 56.1518 117.762 82.1277Z" fill="#F3F4F6"/>
<path d="M104.83 81.8885C104.83 97.1102 90.7166 102.768 71.4652 102.768C52.2139 102.768 38.4199 97.1102 38.4199 81.8885C38.4199 64.1824 52.2139 48.4808 71.4652 48.4808C90.7166 48.4808 104.83 62.8461 104.83 81.8885Z" fill="#F9FAFB"/>
<path d="M69.6476 79.765C69.6476 84.7987 66.5781 90.3208 62.2888 90.3208C57.9994 90.3208 51.0703 86.2193 51.0703 78.7C51.0703 71.6364 58.5558 69.1242 66.2907 70.4141C71.0315 71.2047 69.6476 74.7313 69.6476 79.765Z" fill="#D1D5DB"/>
<path d="M66.0596 79.2564C66.0596 80.0115 65.8438 80.6236 64.7651 80.6236C63.6864 80.6236 63.4707 80.0115 63.4707 79.2564C63.4707 78.5014 63.9022 77.8893 64.7651 77.8893C65.6281 77.8893 66.0596 78.5014 66.0596 79.2564Z" fill="#F3F4F6"/>
<path d="M82.3418 79.765C82.3418 84.7987 85.1868 90.3208 89.1625 90.3208C93.1382 90.3208 99.5605 86.2193 99.5605 78.7C99.5605 71.6364 92.6225 69.1242 85.4532 70.4141C81.0591 71.2047 82.3418 74.7313 82.3418 79.765Z" fill="#D1D5DB"/>
<path d="M85.6688 79.2564C85.6688 80.0115 85.8688 80.6236 86.8686 80.6236C87.8684 80.6236 88.0684 80.0115 88.0684 79.2564C88.0684 78.5014 87.6684 77.8893 86.8686 77.8893C86.0687 77.8893 85.6688 78.5014 85.6688 79.2564Z" fill="#F3F4F6"/>
<path d="M71.2237 87.0965C70.9764 86.7367 70.4842 86.6456 70.1244 86.893C69.7646 87.1403 69.6734 87.6325 69.9208 87.9923L71.2237 87.0965ZM76.37 85.9633L77.1176 85.7063C77.0079 85.387 76.7075 85.1727 76.37 85.1727C76.0324 85.1727 75.732 85.387 75.6223 85.7063L76.37 85.9633ZM82.8191 87.9923C83.0665 87.6325 82.9753 87.1403 82.6155 86.893C82.2557 86.6456 81.7635 86.7367 81.5162 87.0965L82.8191 87.9923ZM69.9208 87.9923C70.1585 88.3381 70.5935 88.8057 71.178 89.1922C71.7674 89.5819 72.5512 89.9162 73.4711 89.9162V88.335C72.9416 88.335 72.4571 88.1423 72.0501 87.8732C71.6381 87.6008 71.3484 87.2778 71.2237 87.0965L69.9208 87.9923ZM73.4711 89.9162C74.5853 89.9162 75.4248 89.1227 75.9588 88.4166C76.5193 87.6754 76.9165 86.8052 77.1176 86.2203L75.6223 85.7063C75.461 86.1754 75.1335 86.8864 74.6976 87.4629C74.2351 88.0744 73.8064 88.335 73.4711 88.335V89.9162ZM75.6223 86.2203C75.8234 86.8052 76.2206 87.6754 76.7811 88.4166C77.3151 89.1227 78.1546 89.9162 79.2688 89.9162V88.335C78.9335 88.335 78.5048 88.0744 78.0423 87.4629C77.6064 86.8864 77.2789 86.1754 77.1176 85.7063L75.6223 86.2203ZM79.2688 89.9162C80.1887 89.9162 80.9725 89.5819 81.5619 89.1922C82.1464 88.8057 82.5814 88.3381 82.8191 87.9923L81.5162 87.0965C81.3915 87.2778 81.1018 87.6008 80.6898 87.8732C80.2828 88.1423 79.7983 88.335 79.2688 88.335V89.9162Z" fill="#D1D5DB"/>
<path d="M81.197 85.151C81.197 85.8921 77.81 86.8378 76.7351 87.1192C76.5227 87.1748 76.3012 87.1748 76.0888 87.1192C75.014 86.8378 71.627 85.8921 71.627 85.151C71.627 84.2701 74.2727 83.3281 76.412 83.3281C78.5513 83.3281 81.197 84.2701 81.197 85.151Z" fill="#D1D5DB"/>
<path d="M77.1134 60.9648C56.775 62.2435 51.8144 55.7512 51.0703 53.0119L62.4797 46.6495L75.3772 44.2637L93.2353 53.5421C92.1605 55.7512 89.6205 60.1784 77.1134 60.9648Z" fill="#D1D5DB"/>
<path fill-rule="evenodd" clip-rule="evenodd" d="M72.606 110.676C98.6618 110.676 117.763 102.957 117.763 82.1934C117.763 56.2175 98.6618 36.6217 72.606 36.6217C46.5503 36.6217 27.8809 58.0404 27.8809 82.1934C27.8809 102.957 46.5503 110.676 72.606 110.676ZM71.5819 102.701C90.7479 102.701 104.799 97.0488 104.799 81.8431C104.799 62.8208 90.7479 48.4707 71.5819 48.4707C52.4159 48.4707 38.6831 64.1557 38.6831 81.8431C38.6831 97.0488 52.4159 102.701 71.5819 102.701Z" fill="#F3F4F6"/>
<path fill-rule="evenodd" clip-rule="evenodd" d="M17.2196 65.1235C20.1091 61.8881 25.3171 62.4248 27.486 66.1815L30.6626 71.6834C32.8315 75.4401 30.6923 80.2187 26.4456 81.1034L25.0644 81.3911C24.9854 81.4075 24.9062 81.4225 24.8271 81.4359C24.7973 81.518 24.7595 81.5978 24.7151 81.6742C23.4574 83.8361 22.8587 88.8169 29.0554 94.5812C35.0933 100.198 40.3128 100.606 42.7154 100.007C42.8858 99.9641 43.0629 99.952 43.2337 99.9736L43.5482 99.3501C45.5018 95.477 50.6712 94.6475 53.7386 97.7149L58.2309 102.207C61.2982 105.275 60.4687 110.444 56.5956 112.398L56.3051 112.544C56.2255 112.67 56.1121 112.78 55.9645 112.86C48.3149 117.011 31.1187 115.005 21.7125 101.924C9.93948 85.5522 11.1255 71.632 15.7675 66.6651C15.8466 66.5805 15.9367 66.5154 16.0331 66.4693C16.1121 66.3695 16.1943 66.2716 16.2799 66.1758L17.2196 65.1235Z" fill="#D1D5DB"/>
<path d="M108.263 35.4461C109.526 32.5757 110.647 32.0214 112.375 31.7621C113.711 31.557 114.81 31.2475 115.269 30.2037C115.728 29.1599 115.19 28.1304 114.17 27.6818C113.174 27.2435 111.935 27.5483 111.39 28.724L107.618 27.0649C109.199 23.5985 112.474 23.1701 115.582 24.537C119.021 26.05 120.782 28.8063 119.457 31.8191C118.58 33.8118 116.97 34.5759 114.963 34.8257C113.348 35.0213 112.418 35.4617 111.751 36.98L111.605 37.3121L108.117 35.7783L108.263 35.4461ZM107.51 42.0513C106.324 41.5296 105.768 40.1528 106.324 38.9534C106.812 37.7805 108.202 37.2594 109.388 37.7811C110.527 38.282 111.106 39.6692 110.618 40.842C110.062 42.0415 108.649 42.5521 107.51 42.0513Z" fill="#D1D5DB"/>
<path d="M119.826 43.5494C121.494 41.8282 122.445 41.7291 123.752 42.0027C124.764 42.2109 125.634 42.2812 126.24 41.6553C126.847 41.0294 126.735 40.1487 126.123 39.556C125.526 38.977 124.557 38.8662 123.854 39.5637L121.592 37.3721C123.647 35.3085 126.107 35.8721 127.971 37.6778C130.033 39.6765 130.562 42.1195 128.811 43.9261C127.654 45.1211 126.297 45.2405 124.792 44.886C123.583 44.5969 122.8 44.6653 121.918 45.5757L121.725 45.7748L119.633 43.7486L119.826 43.5494ZM117.53 48.0822C116.819 47.393 116.787 46.2589 117.505 45.5472C118.166 44.8363 119.3 44.8325 120.012 45.5217C120.694 46.1833 120.74 47.3312 120.079 48.042C119.362 48.7537 118.213 48.7438 117.53 48.0822Z" fill="#D1D5DB"/>
</svg>
