<svg width="14" height="12" viewBox="0 0 14 12" fill="none" xmlns="http://www.w3.org/2000/svg">
<path d="M2.55727 7.31157C2.40756 7.18016 2.28779 7.07475 2.20001 6.99739V6.95147L2.02427 6.77574C1.33047 6.08193 0.933344 5.16547 0.933344 4.2V4.07612C0.994812 2.2062 2.59187 0.666667 4.46668 0.666667C4.74496 0.666667 5.11417 0.763435 5.48222 0.961616C5.82955 1.14864 6.13442 1.40383 6.33686 1.68842C6.63135 2.31494 7.53914 2.30366 7.81154 1.65457C7.97928 1.36092 8.27327 1.0955 8.62558 0.899018C8.99321 0.693998 9.35966 0.6 9.60001 0.6C11.5293 0.6 13.0717 2.12742 13.1333 4.07581V4.2C13.1333 5.24201 12.7299 6.14473 12.0612 6.75771L11.8667 6.93606V6.97957C11.7656 7.06525 11.6353 7.17766 11.4834 7.30974C11.1462 7.6029 10.6948 7.99999 10.2033 8.43321C10.0456 8.5722 9.88375 8.71492 9.72015 8.85919C8.86391 9.61426 7.95937 10.4119 7.346 10.9417C7.16948 11.0861 6.8972 11.0861 6.72068 10.9417C5.98847 10.3093 4.82586 9.2962 3.83651 8.43155C3.34088 7.9984 2.88914 7.60286 2.55727 7.31157Z" stroke="#4B5563" stroke-width="1.2"/>
</svg>
