<?xml version="1.0" standalone="no"?>
<!DOCTYPE svg PUBLIC "-//W3C//DTD SVG 20010904//EN"
 "http://www.w3.org/TR/2001/REC-SVG-20010904/DTD/svg10.dtd">
<svg version="1.0" xmlns="http://www.w3.org/2000/svg"
 width="225.000000pt" height="225.000000pt" viewBox="0 0 225.000000 225.000000"
 preserveAspectRatio="xMidYMid meet">

<g transform="translate(0.000000,225.000000) scale(0.100000,-0.100000)"
fill="#000000" stroke="none">
<path d="M1538 1949 c-58 -13 -148 -62 -200 -108 l-46 -41 -534 0 c-596 0
-585 1 -620 -70 -17 -32 -18 -86 -18 -690 0 -732 -2 -706 70 -742 32 -17 96
-18 885 -18 789 0 853 1 885 18 69 34 70 38 70 492 l0 405 40 80 c49 99 65
187 50 280 -32 197 -159 342 -345 391 -56 15 -180 17 -237 3z m227 -34 c237
-62 378 -316 307 -552 -63 -205 -274 -338 -482 -303 -147 25 -266 113 -331
245 -33 67 -34 74 -34 186 0 113 1 116 38 191 40 82 116 162 188 199 95 48
211 60 314 34z m-505 -160 c0 -3 -7 -16 -15 -28 -24 -37 -54 -133 -60 -195 -9
-76 15 -185 57 -264 136 -257 489 -328 706 -143 l42 37 0 -402 c0 -223 -4
-399 -9 -396 -4 3 -111 135 -237 293 -125 159 -233 291 -238 295 -6 4 -23 8
-37 8 -21 0 -54 -29 -159 -140 -73 -78 -138 -140 -145 -138 -7 2 -81 93 -165
203 -181 238 -198 257 -225 253 -13 -2 -120 -135 -315 -391 l-295 -388 -3 677
-2 678 22 23 21 23 529 0 c290 0 528 -2 528 -5z m-320 -847 c80 -106 158 -207
174 -225 50 -59 65 -51 215 107 74 78 139 140 147 138 16 -4 483 -591 477
-601 -6 -10 -1751 -9 -1757 2 -3 5 18 40 47 78 29 37 160 209 291 381 130 171
242 312 249 312 7 -1 77 -87 157 -192z"/>
<path d="M1562 1781 c-29 -10 -59 -24 -65 -30 -9 -9 39 -62 193 -216 113 -113
210 -205 217 -205 6 0 21 26 33 58 31 80 25 190 -13 255 -77 132 -223 187
-365 138z m218 -41 c84 -43 150 -144 150 -230 0 -52 -16 -116 -31 -126 -10 -6
-359 332 -359 347 0 7 40 24 75 33 36 9 126 -4 165 -24z"/>
<path d="M1391 1646 c-21 -25 -41 -106 -41 -166 0 -164 128 -294 289 -294 77
0 171 30 171 54 0 8 -91 107 -203 218 -174 174 -205 201 -216 188z m196 -218
c95 -95 173 -176 173 -179 0 -26 -135 -37 -202 -17 -89 26 -178 144 -178 236
0 47 18 132 29 132 3 0 83 -78 178 -172z"/>
<path d="M422 1563 c-69 -34 -112 -128 -92 -203 13 -49 63 -108 107 -126 66
-28 159 -9 205 43 43 47 59 132 37 190 -13 34 -55 80 -91 99 -36 19 -125 17
-166 -3z m176 -41 c40 -29 67 -98 57 -149 -9 -49 -69 -109 -118 -118 -51 -10
-120 17 -149 57 -31 44 -35 123 -9 166 47 73 148 94 219 44z"/>
</g>
</svg>
