<svg width="22" height="19" viewBox="0 0 22 19" fill="none" xmlns="http://www.w3.org/2000/svg">
<path d="M14.7726 9.97306L13.6496 8.85001C13.8201 7.96026 13.5861 7.20129 12.9477 6.57309C12.3092 5.94489 11.5432 5.70386 10.6496 5.85001L9.52654 4.72696C9.75859 4.61926 9.99736 4.5417 10.2429 4.49426C10.4884 4.44683 10.7406 4.42311 10.9996 4.42311C12.1342 4.42311 13.0973 4.81895 13.889 5.61061C14.6807 6.40228 15.0765 7.36541 15.0765 8.50001C15.0765 8.75898 15.0544 9.01122 15.0101 9.25674C14.9659 9.50224 14.8867 9.74101 14.7726 9.97306ZM17.9534 13.0846L16.8496 12.05C17.4829 11.5667 18.0496 11.0292 18.5496 10.4375C19.0496 9.84585 19.4663 9.20001 19.7996 8.50001C18.9663 6.81668 17.7621 5.47918 16.1871 4.48751C14.6121 3.49585 12.8829 3.00001 10.9996 3.00001C10.5163 3.00001 10.0454 3.03335 9.58709 3.10001C9.12875 3.16668 8.66625 3.26668 8.19959 3.40001L7.03424 2.23466C7.67012 1.98338 8.31851 1.79812 8.97941 1.67889C9.64029 1.55965 10.3137 1.50004 10.9996 1.50004C13.1483 1.50004 15.122 2.05837 16.9207 3.17504C18.7194 4.2917 20.1028 5.8026 21.0707 7.70771C21.1374 7.83463 21.1858 7.96251 21.2159 8.09136C21.246 8.22021 21.2611 8.35643 21.2611 8.50001C21.2611 8.6436 21.2486 8.77981 21.2236 8.90866C21.1986 9.03751 21.1528 9.1654 21.0861 9.29231C20.7322 10.0449 20.288 10.7397 19.7534 11.3769C19.2188 12.0141 18.6188 12.5833 17.9534 13.0846ZM10.9996 15.5C8.89447 15.5 6.96499 14.9375 5.21116 13.8125C3.45731 12.6875 2.06308 11.2058 1.02846 9.36731C0.945128 9.2404 0.884236 9.10258 0.845786 8.95386C0.807319 8.80515 0.788086 8.65386 0.788086 8.50001C0.788086 8.34616 0.804753 8.19745 0.838086 8.05386C0.871419 7.91028 0.929753 7.7699 1.01309 7.63271C1.38489 6.95323 1.80604 6.30611 2.27656 5.69136C2.74708 5.07661 3.2881 4.52565 3.89964 4.03849L1.64194 1.76539C1.50347 1.61667 1.4352 1.44007 1.43714 1.23559C1.43905 1.0311 1.51244 0.856428 1.65731 0.711562C1.80218 0.566695 1.97782 0.494263 2.18424 0.494263C2.39064 0.494263 2.56627 0.566695 2.71114 0.711562L19.288 17.2885C19.4265 17.4269 19.4999 17.5984 19.5082 17.8029C19.5165 18.0073 19.4432 18.1872 19.288 18.3423C19.1432 18.4872 18.9675 18.5596 18.7611 18.5596C18.5547 18.5596 18.3791 18.4872 18.2342 18.3423L14.715 14.8538C14.1252 15.082 13.5191 15.2468 12.8967 15.3481C12.2743 15.4493 11.6419 15.5 10.9996 15.5ZM4.95346 5.09229C4.36756 5.54485 3.84095 6.05672 3.37364 6.62789C2.90632 7.19904 2.51497 7.82308 2.19959 8.50001C3.03292 10.1833 4.23709 11.5208 5.81209 12.5125C7.38709 13.5042 9.11625 14 10.9996 14C11.4291 14 11.8519 13.9712 12.2679 13.9135C12.6839 13.8558 13.0971 13.7667 13.5073 13.6462L12.2419 12.35C12.0393 12.4384 11.8371 12.4984 11.6352 12.5298C11.4332 12.5612 11.2214 12.5769 10.9996 12.5769C9.86499 12.5769 8.90185 12.1811 8.11019 11.3894C7.31852 10.5977 6.92269 9.63461 6.92269 8.50001C6.92269 8.27821 6.93999 8.06635 6.97461 7.86444C7.00923 7.6625 7.06756 7.46025 7.14961 7.25769L4.95346 5.09229Z" fill="#9FA6B2"/>
</svg>
