<svg width="40" height="40" viewBox="0 0 40 40" fill="none" xmlns="http://www.w3.org/2000/svg">
<g clip-path="url(#clip0_8349_303)">
<circle cx="20" cy="20" r="20" fill="#D1D5DB"/>
<path d="M19.374 8.72949C19.8844 10.4932 18.5349 12.4367 16.9881 12.8873C15.4413 13.3379 13.328 12.4033 12.8176 10.6396C12.3073 8.87586 13.3787 6.43211 14.9255 5.98147C16.9881 5.38057 18.8637 6.96577 19.374 8.72949Z" fill="white"/>
<path d="M20.2247 8.72949C19.7143 10.4932 21.0638 12.4367 22.6106 12.8873C24.1575 13.3379 26.2708 12.4033 26.7811 10.6396C27.2915 8.87586 26.2201 6.43211 24.6732 5.98147C22.6106 5.38057 20.7351 6.96577 20.2247 8.72949Z" fill="white"/>
<path d="M29.8016 21.6147C29.8016 26.1007 25.4028 27.7683 19.4026 27.7683C13.4025 27.7683 9.10324 26.1007 9.10324 21.6147C9.10324 16.3964 13.4025 11.7689 19.4026 11.7689C25.4028 11.7689 29.8016 16.0026 29.8016 21.6147Z" fill="white"/>
<path d="M17.4167 20.7286C17.4167 22.1978 16.4736 23.8096 15.1558 23.8096C13.8379 23.8096 11.709 22.6125 11.709 20.4177C11.709 18.356 14.0089 17.6227 16.3853 17.9992C17.8419 18.23 17.4167 19.2593 17.4167 20.7286Z" fill="#D1D5DB"/>
<path d="M16.3158 20.5796C16.3158 20.8 16.2495 20.9787 15.9181 20.9787C15.5867 20.9787 15.5204 20.8 15.5204 20.5796C15.5204 20.3593 15.653 20.1806 15.9181 20.1806C16.1832 20.1806 16.3158 20.3593 16.3158 20.5796Z" fill="white"/>
<path d="M21.4258 20.7285C21.4258 22.1978 22.3688 23.8096 23.6867 23.8096C25.0045 23.8096 27.1334 22.6124 27.1334 20.4177C27.1334 18.3559 24.8336 17.6227 22.4571 17.9992C21.0006 18.2299 21.4258 19.2593 21.4258 20.7285Z" fill="#D1D5DB"/>
<path d="M22.5283 20.5796C22.5283 20.8 22.5946 20.9787 22.926 20.9787C23.2574 20.9787 23.3237 20.8 23.3237 20.5796C23.3237 20.3593 23.1912 20.1806 22.926 20.1806C22.6609 20.1806 22.5283 20.3593 22.5283 20.5796Z" fill="white"/>
<path fill-rule="evenodd" clip-rule="evenodd" d="M19.7575 30.0001C27.7508 30.0001 33.6107 27.7473 33.6107 21.6867C33.6107 14.1048 27.7508 8.38513 19.7575 8.38513C11.7642 8.38513 6.03683 14.6369 6.03683 21.6867C6.03683 27.7473 11.7642 30.0001 19.7575 30.0001ZM19.4429 27.6725C25.3226 27.6725 29.633 26.0228 29.633 21.5845C29.633 16.0322 25.3226 11.8437 19.4429 11.8437C13.5632 11.8437 9.35031 16.4219 9.35031 21.5845C9.35031 26.0228 13.5632 27.6725 19.4429 27.6725Z" fill="white"/>
<mask id="mask0_8349_303" style="mask-type:alpha" maskUnits="userSpaceOnUse" x="0" y="0" width="40" height="40">
<circle cx="20" cy="20" r="20" fill="#9CA3AF"/>
</mask>
<g mask="url(#mask0_8349_303)">
<ellipse cx="19.5833" cy="37.5" rx="11.25" ry="12.5" fill="white"/>
</g>
</g>
<defs>
<clipPath id="clip0_8349_303">
<rect width="40" height="40" fill="white"/>
</clipPath>
</defs>
</svg>
