<svg width="40" height="40" viewBox="0 0 40 40" fill="none" xmlns="http://www.w3.org/2000/svg">
<g clip-path="url(#clip0_22893_1141)">
<circle cx="20" cy="20" r="20" fill="#D1D5DB"/>
<path d="M19.3739 8.72968C19.8843 10.4934 18.5348 12.4368 16.988 12.8875C15.4412 13.3381 13.3279 12.4035 12.8175 10.6398C12.3071 8.87604 13.3785 6.4323 14.9254 5.98165C16.988 5.38075 18.8636 6.96596 19.3739 8.72968Z" fill="white"/>
<path d="M20.2247 8.72968C19.7143 10.4934 21.0638 12.4368 22.6106 12.8875C24.1575 13.3381 26.2708 12.4035 26.7811 10.6398C27.2915 8.87604 26.2201 6.4323 24.6732 5.98165C22.6106 5.38075 20.7351 6.96596 20.2247 8.72968Z" fill="white"/>
<path d="M29.8014 21.6143C29.8014 26.1004 25.4026 27.7679 19.4024 27.7679C13.4023 27.7679 9.10303 26.1004 9.10303 21.6143C9.10303 16.3961 13.4023 11.7686 19.4024 11.7686C25.4026 11.7686 29.8014 16.0022 29.8014 21.6143Z" fill="white"/>
<path d="M17.4166 20.7284C17.4166 22.1976 16.4736 23.8094 15.1557 23.8094C13.8379 23.8094 11.709 22.6123 11.709 20.4175C11.709 18.3558 14.0088 17.6226 16.3853 17.9991C17.8418 18.2298 17.4166 19.2592 17.4166 20.7284Z" fill="#D1D5DB"/>
<path d="M16.3159 20.5797C16.3159 20.8001 16.2496 20.9788 15.9182 20.9788C15.5868 20.9788 15.5205 20.8001 15.5205 20.5797C15.5205 20.3593 15.6531 20.1807 15.9182 20.1807C16.1833 20.1807 16.3159 20.3593 16.3159 20.5797Z" fill="white"/>
<path d="M21.4257 20.7284C21.4257 22.1976 22.3687 23.8094 23.6866 23.8094C25.0044 23.8094 27.1333 22.6123 27.1333 20.4175C27.1333 18.3558 24.8335 17.6226 22.457 17.9991C21.0005 18.2298 21.4257 19.2592 21.4257 20.7284Z" fill="#D1D5DB"/>
<path d="M22.5283 20.5797C22.5283 20.8001 22.5946 20.9788 22.926 20.9788C23.2574 20.9788 23.3237 20.8001 23.3237 20.5797C23.3237 20.3593 23.1912 20.1807 22.926 20.1807C22.6609 20.1807 22.5283 20.3593 22.5283 20.5797Z" fill="white"/>
<path fill-rule="evenodd" clip-rule="evenodd" d="M19.7573 29.9998C27.7506 29.9998 33.6105 27.7469 33.6105 21.6863C33.6105 14.1044 27.7506 8.38477 19.7573 8.38477C11.764 8.38477 6.03662 14.6365 6.03662 21.6863C6.03662 27.7469 11.764 29.9998 19.7573 29.9998ZM19.4427 27.6721C25.3224 27.6721 29.6328 26.0224 29.6328 21.5841C29.6328 16.0319 25.3224 11.8433 19.4427 11.8433C13.563 11.8433 9.35009 16.4215 9.35009 21.5841C9.35009 26.0224 13.563 27.6721 19.4427 27.6721Z" fill="white"/>
<mask id="mask0_22893_1141" style="mask-type:alpha" maskUnits="userSpaceOnUse" x="0" y="0" width="40" height="40">
<circle cx="20" cy="20" r="20" fill="#9CA3AF"/>
</mask>
<g mask="url(#mask0_22893_1141)">
<ellipse cx="19.5835" cy="37.5" rx="11.25" ry="12.5" fill="white"/>
</g>
</g>
<defs>
<clipPath id="clip0_22893_1141">
<rect width="40" height="40" fill="white"/>
</clipPath>
</defs>
</svg>
