<svg width="153" height="52" viewBox="0 0 153 52" fill="none" xmlns="http://www.w3.org/2000/svg">
<rect y="5.51685" width="40" height="40.1354" rx="11.1782" fill="#3692FF"/>
<path d="M19.3139 16.6915C19.8132 18.4169 18.493 20.3183 16.9797 20.7591C15.4663 21.2 13.3989 20.2856 12.8996 18.5601C12.4003 16.8346 13.4485 14.4439 14.9618 14.003C16.9797 13.4151 18.8146 14.966 19.3139 16.6915Z" fill="#222327"/>
<path d="M20.1461 16.6915C19.6468 18.4169 20.967 20.3183 22.4803 20.7591C23.9936 21.2 26.0611 20.2856 26.5604 18.5601C27.0597 16.8346 26.0115 14.4439 24.4982 14.003C22.4803 13.4151 20.6454 14.966 20.1461 16.6915Z" fill="#222327"/>
<path d="M29.5172 29.2966C29.5172 33.6854 25.2138 35.3168 19.3437 35.3168C13.4736 35.3168 9.26758 33.6854 9.26758 29.2966C9.26758 24.1915 13.4736 19.6643 19.3437 19.6643C25.2138 19.6643 29.5172 23.8062 29.5172 29.2966Z" fill="#F3D6DD"/>
<path d="M17.4003 28.4301C17.4003 29.8675 16.4777 31.4444 15.1884 31.4444C13.8991 31.4444 11.8164 30.2732 11.8164 28.126C11.8164 26.109 14.0664 25.3916 16.3913 25.7599C17.8163 25.9857 17.4003 26.9927 17.4003 28.4301Z" fill="#222327"/>
<path d="M16.3221 28.2849C16.3221 28.5005 16.2573 28.6753 15.933 28.6753C15.6088 28.6753 15.5439 28.5005 15.5439 28.2849C15.5439 28.0693 15.6736 27.8945 15.933 27.8945C16.1924 27.8945 16.3221 28.0693 16.3221 28.2849Z" fill="white"/>
<path d="M21.3223 28.4301C21.3223 29.8675 22.2449 31.4444 23.5342 31.4444C24.8235 31.4444 26.9062 30.2732 26.9062 28.126C26.9062 26.109 24.6563 25.3916 22.3313 25.7599C20.9064 25.9857 21.3223 26.9927 21.3223 28.4301Z" fill="#222327"/>
<path d="M22.4015 28.2852C22.4015 28.5008 22.4664 28.6756 22.7906 28.6756C23.1148 28.6756 23.1797 28.5008 23.1797 28.2852C23.1797 28.0696 23.05 27.8948 22.7906 27.8948C22.5312 27.8948 22.4015 28.0696 22.4015 28.2852Z" fill="white"/>
<path d="M17.8754 30.5098C17.7969 30.3952 17.6404 30.366 17.5258 30.4445C17.4112 30.523 17.382 30.6795 17.4605 30.7941L17.8754 30.5098ZM19.3179 30.2004L19.5559 30.1189C19.521 30.0172 19.4254 29.9489 19.3179 29.9489C19.2104 29.9489 19.1148 30.0172 19.08 30.1189L19.3179 30.2004ZM21.1754 30.7941C21.2539 30.6795 21.2246 30.523 21.1101 30.4445C20.9955 30.366 20.8389 30.3952 20.7604 30.5098L21.1754 30.7941ZM17.4605 30.7941C17.53 30.8955 17.6562 31.0315 17.8254 31.1437C17.9962 31.257 18.2244 31.355 18.493 31.355V30.852C18.349 30.852 18.2163 30.7994 18.1035 30.7246C17.9891 30.6487 17.9091 30.5589 17.8754 30.5098L17.4605 30.7941ZM18.493 31.355C18.8235 31.355 19.0693 31.1192 19.2223 30.9162C19.3838 30.7019 19.498 30.4508 19.5559 30.282L19.08 30.1189C19.0347 30.2511 18.9427 30.4515 18.8206 30.6135C18.69 30.7867 18.5749 30.852 18.493 30.852V31.355ZM19.08 30.282C19.1379 30.4508 19.252 30.7019 19.4136 30.9162C19.5666 31.1192 19.8124 31.355 20.1429 31.355V30.852C20.061 30.852 19.9459 30.7867 19.8153 30.6135C19.6932 30.4515 19.6011 30.2511 19.5559 30.1189L19.08 30.282ZM20.1429 31.355C20.4115 31.355 20.6397 31.257 20.8105 31.1437C20.9797 31.0315 21.1059 30.8955 21.1754 30.7941L20.7604 30.5098C20.7268 30.5589 20.6467 30.6487 20.5324 30.7246C20.4196 30.7994 20.2868 30.852 20.1429 30.852V31.355Z" fill="#222327"/>
<path d="M20.6913 29.968C20.6913 30.1773 19.7493 30.4435 19.4322 30.5272C19.3645 30.5451 19.2946 30.5451 19.2268 30.5272C18.9098 30.4435 17.9678 30.1773 17.9678 29.968C17.9678 29.7165 18.7207 29.4475 19.3295 29.4475C19.9384 29.4475 20.6913 29.7165 20.6913 29.968Z" fill="#222327"/>
<path d="M19.1655 23.2763C15.3813 23.2763 13.9906 21.9468 13.7656 21.1692L15.5656 19.2127L19.4655 18.5354L24.8654 21.1692C24.5404 21.7963 22.9539 23.2763 19.1655 23.2763Z" fill="#222327"/>
<path fill-rule="evenodd" clip-rule="evenodd" d="M19.6898 37.4992C27.5098 37.4992 33.2427 35.2952 33.2427 29.3659C33.2427 21.9484 27.5098 16.3528 19.6898 16.3528C11.8698 16.3528 6.2666 22.469 6.2666 29.3659C6.2666 35.2952 11.8698 37.4992 19.6898 37.4992ZM19.3823 35.2221C25.1345 35.2221 29.3515 33.6081 29.3515 29.2661C29.3515 23.8342 25.1345 19.7364 19.3823 19.7364C13.6301 19.7364 9.50854 24.2154 9.50854 29.2661C9.50854 33.6081 13.6301 35.2221 19.3823 35.2221Z" fill="white"/>
<path d="M70.8926 22.6522H73.9685V26.2408H70.8926V33.5206H66.2786V29.0092C62.9976 29.6757 59.7422 30.0345 55.0001 30.0345H49.6171V26.5228H51.6678V19.243H50.1298V15.7825H64.2792V19.243H62.7413V26.1383C63.9973 25.9845 65.1764 25.8051 66.2786 25.6V15.5262H70.8926V22.6522ZM52.1548 39.6213V32.0083H56.8713V36.0583H71.4052V39.6213H52.1548ZM56.2817 26.5228C56.9225 26.4972 57.5377 26.4972 58.1273 26.4715V19.243H56.2817V26.5228ZM99.6016 24.4465V28.0351H96.5256V39.6213H91.9117V35.5969C88.6306 36.5453 85.3752 37.0836 80.6331 37.0836H76.0192V16.2952H89.1433V19.7557H80.6331V33.5719C85.324 33.5719 88.6563 33.1105 91.9117 32.1877V15.5262H96.5256V24.4465H99.6016ZM125.235 24.4465V28.0351H122.159V39.6213H117.545V15.5262H122.159V24.4465H125.235ZM101.652 37.0836V16.2952H115.058V37.0836H101.652ZM106.266 33.5719H110.496V19.8069H106.266V33.5719ZM144.844 15.5262H149.33V29.4193H144.844V15.5262ZM125.747 26.6766C128.746 26.0614 131.002 25.113 132.258 23.9082L127.285 24.2158V20.8835H133.335V19.243H127.798V15.7825H137.821V20.3965H139.282V15.6544H143.639V29.4193H139.282V23.9851H137.154C135.795 26.6253 132.386 28.8041 127.208 30.1114L125.747 26.6766ZM128.541 35.9558C134.873 35.7251 136.718 34.4178 136.718 32.1877V30.2396H141.332V32.5978C141.332 33.213 141.255 33.8026 141.102 34.3409C144.075 34.5459 147.023 34.9561 149.33 35.4944L148.099 39.6213C145.459 38.6985 141.768 37.8013 138.795 37.3143C136.667 38.7498 133.258 39.4419 129.028 39.6213L128.541 35.9558Z" fill="#3692FF"/>
</svg>
