<svg width="196" height="196" viewBox="0 0 196 196" fill="none" xmlns="http://www.w3.org/2000/svg">
<path d="M86.0459 52.337C89.2258 60.552 83.5632 70.4013 76.334 73.1996C69.1048 75.9979 58.5841 72.4129 55.4042 64.1979C52.2243 55.9828 56.3458 43.8588 63.575 41.0605C73.2147 37.3292 82.866 44.122 86.0459 52.337Z" fill="#D1D5DB"/>
<path d="M90.1223 51.9836C88.4082 60.6242 95.6859 69.3482 103.29 70.8566C110.893 72.365 120.637 67.0177 122.351 58.3771C124.065 49.7365 117.913 38.5059 110.309 36.9975C100.17 34.9861 91.8364 43.343 90.1223 51.9836Z" fill="#D1D5DB"/>
<path d="M164.865 114.979C164.865 144.049 136.663 154.854 98.194 154.854C59.7246 154.854 32.1606 144.049 32.1606 114.979C32.1606 81.1649 59.7246 51.1787 98.194 51.1787C136.663 51.1787 164.865 78.6128 164.865 114.979Z" fill="#F3F4F6"/>
<path d="M146.762 114.644C146.762 135.954 127.003 143.875 100.051 143.875C73.0993 143.875 53.7878 135.954 53.7878 114.644C53.7878 89.8553 73.0993 67.873 100.051 67.873C127.003 67.873 146.762 87.9844 146.762 114.644Z" fill="#F9FAFB"/>
<path d="M97.5075 111.671C97.5075 118.718 93.2102 126.449 87.2051 126.449C81.2 126.449 71.4993 120.707 71.4993 110.18C71.4993 100.291 81.9789 96.7736 92.8078 98.5795C99.4449 99.6863 97.5075 104.624 97.5075 111.671Z" fill="#D1D5DB"/>
<path d="M92.485 110.959C92.485 112.016 92.183 112.873 90.6728 112.873C89.1626 112.873 88.8606 112.016 88.8606 110.959C88.8606 109.902 89.4647 109.045 90.6728 109.045C91.8809 109.045 92.485 109.902 92.485 110.959Z" fill="#F3F4F6"/>
<path d="M115.278 111.671C115.278 118.718 119.261 126.449 124.827 126.449C130.393 126.449 139.385 120.707 139.385 110.18C139.385 100.291 129.671 96.7736 119.634 98.5795C113.482 99.6863 115.278 104.624 115.278 111.671Z" fill="#D1D5DB"/>
<path d="M119.934 110.959C119.934 112.016 120.214 112.873 121.614 112.873C123.014 112.873 123.293 112.016 123.293 110.959C123.293 109.902 122.734 109.045 121.614 109.045C120.494 109.045 119.934 109.902 119.934 110.959Z" fill="#F3F4F6"/>
<path d="M99.7131 121.935C99.3668 121.432 98.6777 121.304 98.174 121.65C97.6702 121.997 97.5426 122.686 97.889 123.189L99.7131 121.935ZM106.918 120.349L107.965 119.989C107.811 119.542 107.39 119.242 106.918 119.242C106.445 119.242 106.025 119.542 105.871 119.989L106.918 120.349ZM115.947 123.189C116.293 122.686 116.165 121.997 115.662 121.65C115.158 121.304 114.469 121.432 114.122 121.935L115.947 123.189ZM97.889 123.189C98.2218 123.673 98.8308 124.328 99.6491 124.869C100.474 125.415 101.571 125.883 102.859 125.883V123.669C102.118 123.669 101.44 123.399 100.87 123.023C100.293 122.641 99.8876 122.189 99.7131 121.935L97.889 123.189ZM102.859 125.883C104.419 125.883 105.595 124.772 106.342 123.783C107.127 122.746 107.683 121.527 107.965 120.708L105.871 119.989C105.645 120.646 105.187 121.641 104.576 122.448C103.929 123.304 103.329 123.669 102.859 123.669V125.883ZM105.871 120.708C106.153 121.527 106.709 122.746 107.493 123.783C108.241 124.772 109.416 125.883 110.976 125.883V123.669C110.507 123.669 109.907 123.304 109.259 122.448C108.649 121.641 108.19 120.646 107.965 119.989L105.871 120.708ZM110.976 125.883C112.264 125.883 113.361 125.415 114.187 124.869C115.005 124.328 115.614 123.673 115.947 123.189L114.122 121.935C113.948 122.189 113.542 122.641 112.966 123.023C112.396 123.399 111.717 123.669 110.976 123.669V125.883Z" fill="#D1D5DB"/>
<path d="M113.675 119.211C113.675 120.249 108.933 121.573 107.429 121.967C107.131 122.045 106.821 122.045 106.524 121.967C105.019 121.573 100.277 120.249 100.277 119.211C100.277 117.978 103.981 116.659 106.976 116.659C109.971 116.659 113.675 117.978 113.675 119.211Z" fill="#D1D5DB"/>
<path d="M107.959 85.3513C79.4856 87.1415 72.5407 78.0523 71.499 74.2172L87.4721 65.3099L105.529 61.9697L130.53 74.9595C129.025 78.0523 125.469 84.2504 107.959 85.3513Z" fill="#D1D5DB"/>
<path fill-rule="evenodd" clip-rule="evenodd" d="M101.648 154.946C138.126 154.946 164.868 144.14 164.868 115.071C164.868 78.7046 138.126 51.2705 101.648 51.2705C65.1699 51.2705 39.0327 81.2567 39.0327 115.071C39.0327 144.14 65.1699 154.946 101.648 154.946ZM100.214 143.781C127.047 143.781 146.717 135.868 146.717 114.581C146.717 87.9493 127.047 67.8591 100.214 67.8591C73.3817 67.8591 54.1558 89.8181 54.1558 114.581C54.1558 135.868 73.3817 143.781 100.214 143.781Z" fill="#F3F4F6"/>
<path fill-rule="evenodd" clip-rule="evenodd" d="M24.1065 91.1732C28.1518 86.6436 35.4429 87.395 38.4795 92.6544L42.9266 100.357C45.9631 105.616 42.9683 112.306 37.0229 113.545L35.0892 113.948C34.9785 113.971 34.8678 113.992 34.757 114.01C34.7153 114.125 34.6623 114.237 34.6001 114.344C32.8394 117.371 32.0011 124.344 40.6765 132.414C49.1296 140.277 56.4369 140.849 59.8006 140.01C60.0392 139.95 60.2871 139.933 60.5262 139.963L60.9665 139.09C63.7016 133.668 70.9387 132.507 75.233 136.801L81.5222 143.09C85.8165 147.385 84.6552 154.622 79.2329 157.357L78.8262 157.562C78.7148 157.739 78.5559 157.892 78.3494 158.004C67.6399 163.816 43.5652 161.007 30.3966 142.694C13.9143 119.773 15.5748 100.285 22.0736 93.3315C22.1843 93.2129 22.3105 93.1219 22.4454 93.0572C22.5559 92.9175 22.671 92.7805 22.7908 92.6464L24.1065 91.1732Z" fill="#D1D5DB"/>
<path d="M151.651 49.4422C153.418 45.4235 154.988 44.6475 157.407 44.2845C159.278 43.9974 160.816 43.5641 161.459 42.1028C162.101 40.6414 161.348 39.2002 159.92 38.572C158.525 37.9585 156.792 38.3851 156.028 40.0311L150.747 37.7084C152.961 32.8555 157.545 32.2558 161.896 34.1694C166.712 36.2876 169.177 40.1463 167.321 44.3643C166.094 47.1541 163.84 48.2238 161.03 48.5735C158.77 48.8475 157.468 49.464 156.533 51.5896L156.328 52.0546L151.446 49.9071L151.651 49.4422ZM150.596 58.6894C148.935 57.959 148.158 56.0316 148.936 54.3523C149.619 52.7103 151.565 51.9808 153.225 52.7112C154.819 53.4124 155.63 55.3544 154.947 56.9964C154.169 58.6756 152.19 59.3906 150.596 58.6894Z" fill="#D1D5DB"/>
<path d="M167.617 61.1131C169.952 58.7034 171.283 58.5647 173.113 58.9477C174.53 59.2392 175.747 59.3376 176.596 58.4614C177.445 57.5851 177.289 56.3521 176.432 55.5223C175.596 54.7118 174.24 54.5566 173.255 55.5331L170.089 52.4648C172.965 49.5758 176.41 50.3648 179.019 52.8928C181.907 55.6909 182.647 59.1112 180.196 61.6405C178.575 63.3134 176.675 63.4806 174.569 62.9843C172.876 62.5795 171.779 62.6753 170.544 63.9498L170.274 64.2287L167.347 61.3919L167.617 61.1131ZM164.403 67.459C163.407 66.4941 163.362 64.9063 164.366 63.9099C165.292 62.9148 166.88 62.9094 167.876 63.8742C168.832 64.8005 168.897 66.4076 167.971 67.4028C166.967 68.3991 165.359 68.3853 164.403 67.459Z" fill="#D1D5DB"/>
</svg>
