<svg width="589" height="444" viewBox="0 0 589 444" fill="none" xmlns="http://www.w3.org/2000/svg">
<g clip-path="url(#clip0_22739_12398)">
<rect x="0.5" width="588" height="444" rx="12" fill="#F3F4F6"/>
<rect x="52.5" y="161" width="133" height="133" rx="22" fill="#F9FAFB"/>
<rect x="-104.5" y="161" width="133" height="133" rx="22" fill="#F9FAFB"/>
<rect x="403.5" y="161" width="133" height="133" rx="22" fill="#F9FAFB"/>
<rect x="560.5" y="161" width="133" height="133" rx="22" fill="#F9FAFB"/>
</g>
<rect x="209.5" y="143.323" width="170" height="170.384" rx="22" fill="#E5E7EB"/>
<rect x="209.5" y="143.323" width="170" height="170.384" rx="22" fill="url(#paint0_linear_22739_12398)"/>
<path d="M283.833 245.168C283.833 232.786 286.764 229.008 292.418 225.336C297.13 222.293 300.689 219.669 300.689 215.367C300.689 211.484 297.548 208.861 293.674 208.861C289.591 208.861 286.032 211.904 285.927 216.416H267.5C267.709 200.256 279.54 193.436 293.779 193.436C309.484 193.436 321.001 200.466 321.001 214.318C321.001 223.237 316.185 228.589 308.96 232.786C303.516 236.039 300.794 239.082 300.794 245.168V246.847H283.833V245.168ZM292.523 271.612C286.869 271.612 282.262 267.1 282.367 261.433C282.262 255.872 286.869 251.359 292.523 251.359C297.862 251.359 302.679 255.872 302.679 261.433C302.679 267.1 297.862 271.612 292.523 271.612Z" fill="#D1D5DB"/>
<path d="M434.546 350.47C437.394 353.325 442.017 353.33 444.872 350.482C447.727 347.633 447.732 343.01 444.884 340.155L434.546 350.47ZM391.331 307.158L434.546 350.47L444.884 340.155L401.669 296.843L391.331 307.158Z" fill="#3692FF"/>
<path d="M411.486 263.738C411.486 293.013 387.813 316.716 358.644 316.716C329.476 316.716 305.802 293.013 305.802 263.738C305.802 234.464 329.476 210.76 358.644 210.76C387.813 210.76 411.486 234.464 411.486 263.738Z" stroke="black" stroke-width="14.6041"/>
<defs>
<linearGradient id="paint0_linear_22739_12398" x1="236.5" y1="150.84" x2="357.869" y2="325.477" gradientUnits="userSpaceOnUse">
<stop stop-color="#BFD5FF"/>
<stop offset="1" stop-color="#E5E7EB" stop-opacity="0"/>
</linearGradient>
<clipPath id="clip0_22739_12398">
<rect width="588" height="444" fill="white" transform="translate(0.5)"/>
</clipPath>
</defs>
</svg>
