<svg width="220" height="220" viewBox="0 0 220 220" fill="none" xmlns="http://www.w3.org/2000/svg">
<rect width="220" height="220" fill="#F9FAFB"/>
<path d="M129.703 41.9619L145.646 41.9751L142.443 60.0415C147.958 64.1041 150.645 70.9767 149.348 77.7031L145.067 99.9019L130.187 99.8897L126.596 77.3264C125.549 70.7519 128.159 64.1282 133.408 60.0341L129.703 41.9619Z" fill="#E5E7EB"/>
<rect x="52.0642" y="99.8252" width="115.855" height="78.1222" rx="6.37732" transform="rotate(0.0471621 52.0642 99.8252)" fill="#E5E7EB"/>
<path fill-rule="evenodd" clip-rule="evenodd" d="M111.309 99.874L137.905 122.335L134.08 122.8L134.454 126.421L130.725 126.772L131.003 130.508L127.274 130.858L127.553 134.594L123.823 134.944L124.102 138.68L78.1204 99.8467L111.309 99.874Z" fill="#F3F4F6"/>
<path d="M106.812 132.902C107.176 134.465 105.904 136.098 104.528 136.42C103.152 136.741 101.345 135.826 100.98 134.262C100.615 132.699 101.667 130.616 103.043 130.295C104.878 129.867 106.447 131.338 106.812 132.902Z" fill="#F3F4F6"/>
<path d="M113.832 132.962C113.303 134.477 114.394 136.237 115.728 136.703C117.062 137.169 118.956 136.452 119.486 134.936C120.015 133.42 119.19 131.237 117.856 130.771C116.078 130.15 114.361 131.446 113.832 132.962Z" fill="#F3F4F6"/>
<path d="M120.422 141.864C120.177 146.445 115.613 147.909 109.51 147.583C103.408 147.258 99.1262 145.321 99.3708 140.74C99.6554 135.411 103.238 131.336 110.358 131.717C117.477 132.097 120.728 136.133 120.422 141.864Z" fill="#F3F4F6"/>
<path d="M108.505 139.851C108.434 141.18 107.534 142.594 106.385 142.533C105.236 142.472 103.438 141.29 103.544 139.305C103.643 137.44 105.684 136.883 107.738 137.335C108.997 137.611 108.576 138.523 108.505 139.851Z" fill="#E5E7EB"/>
<path d="M106.367 139.539C106.353 139.799 106.42 140.015 106.813 140.036C107.206 140.057 107.296 139.85 107.31 139.589C107.323 139.329 107.178 139.11 106.863 139.093C106.549 139.076 106.381 139.279 106.367 139.539Z" fill="white"/>
<path d="M111.434 140.007C111.363 141.336 112.107 142.838 113.257 142.9C114.406 142.961 116.32 141.977 116.426 139.992C116.525 138.127 114.555 137.357 112.465 137.587C111.184 137.728 111.505 138.678 111.434 140.007Z" fill="#E5E7EB"/>
<path d="M113.594 139.924C113.58 140.184 113.49 140.391 113.097 140.37C112.704 140.349 112.637 140.134 112.651 139.874C112.665 139.613 112.833 139.411 113.148 139.428C113.462 139.444 113.608 139.664 113.594 139.924Z" fill="white"/>
<rect x="58.9829" y="88.1396" width="57.9273" height="11.6918" rx="1.06289" transform="rotate(0.0471621 58.9829 88.1396)" fill="#E5E7EB"/>
<rect x="55.2517" y="79.6406" width="52.0815" height="8.5031" rx="1.06289" transform="rotate(0.0471621 55.2517 79.6406)" fill="#E5E7EB"/>
<rect x="62.1604" y="71.1748" width="52.0815" height="8.5031" rx="1.06289" transform="rotate(0.0471621 62.1604 71.1748)" fill="#E5E7EB"/>
</svg>
