<svg width="87" height="40" viewBox="0 0 87 40" fill="none" xmlns="http://www.w3.org/2000/svg">
<rect x="0.5" y="0.5" width="86" height="39" rx="19.5" fill="white"/>
<rect x="0.5" y="0.5" width="86" height="39" rx="19.5" stroke="#E5E7EB"/>
<path d="M18.1202 22.1482C18.1133 22.1421 18.1065 22.1361 18.0998 22.1302V22.0272L17.8362 21.7636C16.3955 20.3229 15.5665 18.4149 15.5665 16.4V16.1474C15.6921 12.2426 19.021 9.03333 22.9332 9.03333C23.5506 9.03333 24.3377 9.24515 25.1065 9.65909C25.8429 10.0556 26.4984 10.6034 26.9351 11.2271C27.4083 12.2738 28.9116 12.2574 29.3525 11.1779C29.7207 10.5233 30.3603 9.95126 31.1049 9.53603C31.873 9.10766 32.656 8.9 33.1998 8.9C37.2271 8.9 40.4406 12.091 40.5665 16.1469V16.4C40.5665 18.563 39.7281 20.4504 38.325 21.7366L38.0332 22.0041V22.0985C38.0191 22.1104 38.0047 22.1225 37.99 22.1349C37.782 22.3102 37.4997 22.5534 37.1634 22.8459C36.49 23.4314 35.5879 24.225 34.6048 25.0915C34.2897 25.3692 33.9663 25.6543 33.6393 25.9427C31.9255 27.454 30.1132 29.0522 28.885 30.113C28.4204 30.4957 27.7125 30.4957 27.2479 30.1129C25.783 28.8477 23.4555 26.8195 21.4754 25.089C20.4841 24.2226 19.5804 23.4314 18.9165 22.8486C18.5844 22.5571 18.3128 22.3182 18.1202 22.1482Z" stroke="#6B7280" stroke-width="1.8"/>
<path d="M53.2969 14.6875V26H51.5625V16.4062H51.5L48.7969 18.1719V16.5312L51.6094 14.6875H53.2969ZM56.1719 26V24.75L60.0938 20.7969C61.3281 19.5 61.9531 18.7812 61.9531 17.7969C61.9531 16.6875 61.0469 15.9688 59.8594 15.9688C58.6094 15.9688 57.7969 16.7656 57.7969 17.9688H56.1719C56.1562 15.9062 57.7344 14.5312 59.8906 14.5312C62.0781 14.5312 63.5781 15.9062 63.5938 17.75C63.5781 19.0156 62.9844 20.0156 60.8594 22.1094L58.5625 24.4375V24.5312H63.7812V26H56.1719ZM69.7031 26.1562C67.3594 26.1562 65.6875 24.8906 65.625 23.0469H67.375C67.4375 24.0469 68.4219 24.6719 69.6875 24.6719C71.0469 24.6719 72.0469 23.9219 72.0469 22.8281C72.0469 21.7188 71.1094 20.9062 69.5 20.9062H68.5312V19.5H69.5C70.7812 19.5 71.6875 18.7812 71.6875 17.7031C71.6875 16.6719 70.9219 15.9688 69.7188 15.9688C68.5781 15.9688 67.5781 16.5938 67.5312 17.625H65.875C65.9219 15.7812 67.625 14.5312 69.7344 14.5312C71.9531 14.5312 73.3594 15.9375 73.3438 17.6094C73.3594 18.8906 72.5625 19.8281 71.3438 20.125V20.2031C72.8906 20.4219 73.7812 21.4531 73.7812 22.8906C73.7812 24.7812 72.0469 26.1562 69.7031 26.1562Z" fill="#6B7280"/>
</svg>
