<svg width="14" height="12" viewBox="0 0 14 12" fill="none" xmlns="http://www.w3.org/2000/svg">
<path d="M2.55694 7.31157C2.40722 7.18016 2.28746 7.07475 2.19967 6.99739V6.95147L2.02394 6.77574C1.33013 6.08193 0.933008 5.16547 0.933008 4.2V4.07612C0.994477 2.2062 2.59154 0.666667 4.46634 0.666667C4.74462 0.666667 5.11383 0.763435 5.48188 0.961616C5.82921 1.14864 6.13408 1.40383 6.33652 1.68842C6.63101 2.31494 7.53881 2.30366 7.8112 1.65457C7.97894 1.36092 8.27293 1.0955 8.62525 0.899018C8.99287 0.693998 9.35933 0.6 9.59967 0.6C11.529 0.6 13.0714 2.12742 13.133 4.07581V4.2C13.133 5.24201 12.7296 6.14473 12.0609 6.75771L11.8663 6.93606V6.97957C11.7653 7.06525 11.6349 7.17766 11.4831 7.30974C11.1459 7.6029 10.6945 7.99999 10.203 8.43321C10.0452 8.5722 9.88341 8.71492 9.71981 8.85919C8.86357 9.61426 7.95903 10.4119 7.34567 10.9417C7.16914 11.0861 6.89687 11.0861 6.72034 10.9417C5.98813 10.3093 4.82553 9.2962 3.83618 8.43155C3.34055 7.9984 2.88881 7.60286 2.55694 7.31157Z" stroke="#6B7280" stroke-width="1.2"/>
</svg>
