<svg width="24" height="24" viewBox="0 0 24 24" fill="none" xmlns="http://www.w3.org/2000/svg">
<path d="M5.33589 13.9674C5.11132 13.7702 4.93167 13.6121 4.8 13.4961V13.4272L4.5364 13.1636C3.49568 12.1229 2.9 10.7482 2.9 9.3V9.11419C2.9922 6.30931 5.3878 4 8.2 4C8.61742 4 9.17124 4.14515 9.72331 4.44242C10.2443 4.72296 10.7016 5.10575 11.0053 5.53263C11.447 6.47241 12.8087 6.45549 13.2173 5.48186C13.4689 5.04139 13.9099 4.64325 14.4384 4.34853C14.9898 4.041 15.5395 3.9 15.9 3.9C18.794 3.9 21.1075 6.19113 21.2 9.11371V9.3C21.2 10.863 20.5949 12.2171 19.5918 13.1366L19.3 13.4041V13.4694C19.1484 13.5979 18.9529 13.7665 18.7251 13.9646C18.2194 14.4044 17.5422 15 16.8049 15.6498C16.5685 15.8582 16.3258 16.0722 16.0805 16.2885C14.7961 17.4212 13.4391 18.6178 12.519 19.4126C12.2542 19.6291 11.8458 19.6291 11.581 19.4126C10.4827 18.464 8.73879 16.9443 7.25475 15.6473C6.51131 14.9976 5.8337 14.4043 5.33589 13.9674Z" stroke="#6B7280" stroke-width="1.8"/>
</svg>
