<svg width="746" height="397" viewBox="0 0 746 397" fill="none" xmlns="http://www.w3.org/2000/svg">
<g clip-path="url(#clip0_8532_15759)">
<ellipse cx="373" cy="404.742" rx="373" ry="202.153" fill="#E3A578"/>
<ellipse cx="373" cy="404.742" rx="373" ry="202.153" fill="url(#paint0_linear_8532_15759)"/>
<path d="M216.788 309.368C208.101 311.039 203.562 304.774 202.17 302.268L219.712 285.144L229.736 294.75C231.407 298.509 228.483 307.119 216.788 309.368Z" fill="white"/>
<path d="M165.618 72.6588C170.093 84.2188 162.124 98.0785 151.951 102.016C141.779 105.954 126.974 100.909 122.499 89.3492C118.025 77.7892 123.824 60.7285 133.997 56.7908C147.562 51.54 161.143 61.0987 165.618 72.6588Z" fill="#222327"/>
<path d="M171.354 72.16C168.942 84.3189 179.183 96.5951 189.883 98.7177C200.582 100.84 214.294 93.3158 216.706 81.1569C219.118 68.9979 210.461 53.1945 199.761 51.0719C185.493 48.2415 173.766 60.001 171.354 72.16Z" fill="#222327"/>
<path d="M276.534 160.807C276.534 201.714 236.848 216.919 182.715 216.919C128.581 216.919 89.7939 201.714 89.7939 160.807C89.7939 113.225 128.581 71.0286 182.715 71.0286C236.848 71.0286 276.534 109.633 276.534 160.807Z" fill="white"/>
<path d="M145.146 264.486C145.146 247.053 150.748 220.749 155.732 209.776H225.23C230.068 219.513 234.777 244.086 234.425 264.486C233.986 289.986 210.676 291.84 189.126 292.767C167.576 293.695 145.146 286.277 145.146 264.486Z" fill="white"/>
<rect x="207.584" y="216.682" width="37.3803" height="47.6311" rx="18.6902" transform="rotate(-21.5019 207.584 216.682)" fill="#222327"/>
<path d="M206.293 303.553C196.195 300.973 189.212 300.855 172.873 285.642L202.489 267.911C205.991 264.024 214.697 257.45 221.503 262.247C230.012 268.243 236.134 280.399 235.707 283.095C235.364 285.251 230.911 289.64 228.727 291.565L219.61 298.274C218.197 302.528 215.411 305.884 206.293 303.553Z" fill="white"/>
<path d="M232.121 275.559C239.8 284.835 238.489 289.29 236.039 292.684L229.881 284.822C229.269 281.416 228.149 270.759 232.121 275.559Z" fill="white"/>
<path d="M217.401 289.305C216.57 290.551 199.576 299.515 195.596 301.246C196.115 302.284 203.199 301.402 208.056 299.169C213.556 296.64 218.439 287.747 217.401 289.305Z" fill="#F2F2F2"/>
<path d="M156.313 273.459C162.121 265.076 164.69 258.651 183.676 249.243L188.622 283.357C190.762 288.064 193.399 298.604 186.827 303.104C178.613 308.729 165.89 309.822 163.7 308.411C161.948 307.282 159.707 301.504 158.806 298.756L156.196 287.784C153 284.873 151.068 281.028 156.313 273.459Z" fill="white"/>
<path d="M169.716 309.281C158.231 312.9 153.405 310.061 149.467 301.586L161.978 303.717C165.364 304.433 175.658 307.408 169.716 309.281Z" fill="white"/>
<path d="M213.136 277.008C218.678 296.559 207.702 302.081 163.185 310.921L165.447 291.816L186.822 277.008C200.191 269.36 210.534 267.829 213.136 277.008Z" fill="white"/>
<path d="M167.031 310.447C159.933 313.745 152.466 311.176 147.101 299.631C141.736 288.086 142.092 278.705 149.189 275.406C156.287 272.108 163.644 270.89 170.951 286.615C176.316 298.16 178.009 305.345 167.031 310.447Z" fill="white"/>
<path d="M161.005 305.609C157.735 306.698 152.648 302.869 151.043 298.05C149.14 292.338 149.599 287.76 153.828 286.352C157.62 285.089 163.471 285.094 166.062 292.875C167.965 298.587 166.579 303.752 161.005 305.609Z" fill="#222327"/>
<path fill-rule="evenodd" clip-rule="evenodd" d="M145.063 263.729C154.933 265.964 167.837 267.382 184.233 266.884C204.063 266.283 220.86 263.8 233.93 260.886C233.697 243.116 230.034 223.197 225.978 212.891C214.906 215.636 202.261 216.886 188.569 216.886C176.06 216.886 164.48 215.843 154.199 213.569C149.75 225.63 145.269 247.961 145.063 263.729Z" fill="#222327"/>
<path d="M205.05 243.002C207.43 221.624 218.292 215.582 228.502 212.64C232.656 211.444 239.405 211.602 243.039 213.16C247.438 215.045 252.384 218.871 256.018 227.696C259.652 236.522 264.236 249.751 266.312 263.249L266.34 263.43C268.418 276.932 271.586 297.515 230.237 297.515C196.169 297.515 202.884 262.461 205.05 243.002Z" fill="#3786E2"/>
<path d="M222.935 256.796C213.057 251.335 209.477 238.901 214.938 229.023L215.361 228.257C219.923 220.006 229.54 215.951 238.632 218.445C251.272 221.913 257.418 236.223 251.229 247.777L249.863 250.328C244.869 259.361 233.497 262.636 224.463 257.641L222.935 256.796Z" fill="#222327"/>
<path d="M233.636 271.404C234.185 272.856 233.173 274.584 231.895 275.068C230.617 275.551 228.768 274.904 228.219 273.452C227.67 272 228.413 269.868 229.691 269.385C231.395 268.741 233.087 269.952 233.636 271.404Z" fill="#2D68AE"/>
<path d="M240.374 270.566C240.06 272.086 241.331 273.634 242.669 273.91C244.007 274.187 245.732 273.258 246.046 271.737C246.36 270.216 245.291 268.228 243.953 267.952C242.169 267.583 240.688 269.045 240.374 270.566Z" fill="#2D68AE"/>
<path d="M247.826 278.26C248.176 282.683 243.987 284.668 238.095 285.134C232.203 285.6 227.852 284.289 227.502 279.866C227.095 274.722 230.01 270.358 236.884 269.815C243.758 269.271 247.389 272.727 247.826 278.26Z" fill="#2D68AE"/>
<path d="M236.145 277.85C236.247 279.133 235.564 280.604 234.455 280.691C233.345 280.779 231.471 279.875 231.319 277.958C231.177 276.158 233.062 275.365 235.089 275.535C236.331 275.64 236.044 276.567 236.145 277.85Z" fill="#3475C2"/>
<path d="M234.056 277.823C234.075 278.074 234.167 278.272 234.547 278.242C234.926 278.212 234.986 278.002 234.966 277.751C234.946 277.5 234.778 277.308 234.475 277.332C234.171 277.356 234.036 277.572 234.056 277.823Z" fill="white"/>
<path d="M238.973 277.625C239.074 278.909 239.98 280.253 241.089 280.166C242.199 280.078 243.908 278.891 243.757 276.974C243.614 275.174 241.627 274.686 239.653 275.173C238.443 275.472 238.872 276.342 238.973 277.625Z" fill="#3475C2"/>
<path d="M241.033 277.271C241.053 277.522 240.993 277.732 240.614 277.762C240.235 277.792 240.143 277.594 240.123 277.343C240.103 277.091 240.239 276.876 240.542 276.852C240.845 276.828 241.013 277.019 241.033 277.271Z" fill="white"/>
<path d="M251.058 160.334C251.058 190.322 223.254 201.469 185.328 201.469C147.401 201.469 120.227 190.322 120.227 160.334C120.227 125.453 147.401 94.5195 185.328 94.5195C223.254 94.5195 251.058 122.82 251.058 160.334Z" fill="#F3D6DD"/>
<path d="M181.745 156.154C181.745 166.071 175.698 176.95 167.247 176.95C158.797 176.95 145.146 168.869 145.146 154.056C145.146 140.14 159.893 135.191 175.132 137.732C184.471 139.29 181.745 146.237 181.745 156.154Z" fill="#222327"/>
<path d="M174.674 155.151C174.674 156.639 174.249 157.845 172.124 157.845C169.999 157.845 169.574 156.639 169.574 155.151C169.574 153.664 170.424 152.458 172.124 152.458C173.824 152.458 174.674 153.664 174.674 155.151Z" fill="white"/>
<path d="M206.752 156.154C206.752 166.071 212.357 176.95 220.189 176.95C228.021 176.95 240.674 168.869 240.674 154.056C240.674 140.14 227.005 135.191 212.882 137.732C204.225 139.29 206.752 146.237 206.752 156.154Z" fill="#222327"/>
<path d="M213.304 155.151C213.304 156.639 213.698 157.845 215.668 157.845C217.637 157.845 218.031 156.639 218.031 155.151C218.031 153.664 217.243 152.458 215.668 152.458C214.092 152.458 213.304 153.664 213.304 155.151Z" fill="white"/>
<path d="M185.102 170.422C184.518 169.573 183.358 169.358 182.509 169.942C181.661 170.525 181.446 171.686 182.029 172.535L185.102 170.422ZM194.987 168.363L196.75 167.757C196.492 167.004 195.783 166.499 194.987 166.499C194.191 166.499 193.483 167.004 193.224 167.757L194.987 168.363ZM207.945 172.535C208.529 171.686 208.314 170.525 207.465 169.942C206.617 169.358 205.456 169.573 204.873 170.422L207.945 172.535ZM182.029 172.535C182.519 173.248 183.405 174.197 184.589 174.981C185.786 175.772 187.388 176.458 189.276 176.458V172.729C188.309 172.729 187.413 172.377 186.646 171.87C185.868 171.355 185.325 170.747 185.102 170.422L182.029 172.535ZM189.276 176.458C191.623 176.458 193.356 174.791 194.422 173.382C195.55 171.889 196.347 170.144 196.75 168.969L193.224 167.757C192.914 168.659 192.282 170.029 191.448 171.132C190.55 172.319 189.786 172.729 189.276 172.729V176.458ZM193.224 168.969C193.628 170.144 194.424 171.889 195.552 173.382C196.618 174.791 198.352 176.458 200.698 176.458V172.729C200.189 172.729 199.424 172.319 198.527 171.132C197.692 170.029 197.06 168.659 196.75 167.757L193.224 168.969ZM200.698 176.458C202.586 176.458 204.188 175.772 205.385 174.981C206.57 174.197 207.455 173.248 207.945 172.535L204.873 170.422C204.649 170.747 204.106 171.355 203.328 171.87C202.562 172.377 201.665 172.729 200.698 172.729V176.458Z" fill="#222327"/>
<path d="M204.495 166.763C204.495 168.196 198.068 170.017 195.827 170.608C195.327 170.74 194.81 170.74 194.309 170.608C192.069 170.017 185.642 168.196 185.642 166.763C185.642 165.028 190.854 163.172 195.068 163.172C199.283 163.172 204.495 165.028 204.495 166.763Z" fill="#222327"/>
<path d="M196.454 119.115C156.386 121.635 146.613 108.844 145.147 103.448L167.625 90.9137L193.033 86.2134L228.215 104.492C226.097 108.844 221.093 117.566 196.454 119.115Z" fill="#222327"/>
<path fill-rule="evenodd" clip-rule="evenodd" d="M187.571 217.048C238.902 217.048 276.533 201.842 276.533 160.936C276.533 109.762 238.902 71.1575 187.571 71.1575C136.24 71.1575 99.46 113.353 99.46 160.936C99.46 201.842 136.24 217.048 187.571 217.048ZM185.556 201.337C223.314 201.337 250.994 190.202 250.994 160.246C250.994 122.771 223.314 94.5002 185.556 94.5002C147.798 94.5002 120.743 125.401 120.743 160.246C120.743 190.202 147.798 201.337 185.556 201.337Z" fill="white"/>
<path d="M129.053 195.239C138.267 209.05 150.858 213.41 159.684 216.006L180.649 244.331C180.303 247.792 168.559 262.71 125.364 246.927C76.0424 228.906 83.6129 185.368 97.0621 179.435C114.714 171.647 122.625 185.604 129.053 195.239Z" fill="#222327"/>
<rect x="166.378" y="222.235" width="5.19171" height="15.5751" rx="2.59585" fill="white"/>
<path fill-rule="evenodd" clip-rule="evenodd" d="M166.378 234.694V235.214C166.378 236.647 167.54 237.81 168.974 237.81C170.407 237.81 171.57 236.647 171.57 235.214V234.694H166.378Z" fill="#256FC5"/>
<rect x="190.835" y="222.235" width="5.19171" height="15.5751" rx="2.59585" fill="white"/>
<path fill-rule="evenodd" clip-rule="evenodd" d="M190.835 234.694V235.214C190.835 236.647 191.997 237.81 193.431 237.81C194.864 237.81 196.027 236.647 196.027 235.214V234.694H190.835Z" fill="#256FC5"/>
<path d="M152.022 281.057C152.752 280.786 153.649 281.392 154.028 282.41C154.406 283.428 154.713 284.254 153.393 284.745C152.073 285.235 151.766 284.41 151.388 283.391C151.009 282.373 151.293 281.328 152.022 281.057Z" fill="#222327"/>
<path d="M148.327 282.96C148.979 282.537 149.987 282.933 150.578 283.844C151.169 284.756 151.649 285.495 150.467 286.261C149.285 287.027 148.806 286.288 148.215 285.377C147.624 284.465 147.674 283.383 148.327 282.96Z" fill="#222327"/>
<path d="M156.454 279.984C155.676 280.012 155.078 280.915 155.118 282.001C155.157 283.086 155.189 283.967 156.597 283.915C158.004 283.864 157.972 282.984 157.932 281.898C157.893 280.813 157.231 279.955 156.454 279.984Z" fill="#222327"/>
<path d="M534.343 324.405C543.031 326.075 547.57 319.81 548.962 317.304L531.42 300.18L521.396 309.786C519.725 313.545 522.649 322.156 534.343 324.405Z" fill="white"/>
<path d="M585.514 87.6951C581.039 99.2552 589.008 113.115 599.18 117.053C609.353 120.99 624.158 115.946 628.632 104.386C633.107 92.8255 627.307 75.7649 617.135 71.8271C603.57 66.5764 589.989 76.1351 585.514 87.6951Z" fill="#222327"/>
<path d="M579.777 87.1961C582.189 99.355 571.948 111.631 561.248 113.754C550.548 115.876 536.837 108.352 534.425 96.193C532.013 84.0341 540.67 68.2306 551.37 66.108C565.638 63.2776 577.365 75.0372 579.777 87.1961Z" fill="#222327"/>
<path d="M474.599 175.843C474.599 216.75 514.285 231.955 568.418 231.955C622.551 231.955 661.339 216.75 661.339 175.843C661.339 128.261 622.551 86.0647 568.418 86.0647C514.285 86.0647 474.599 124.67 474.599 175.843Z" fill="white"/>
<path d="M605.984 279.521C605.984 262.088 600.383 235.784 595.399 224.812H525.901C521.063 234.548 516.354 259.121 516.706 279.521C517.145 305.021 540.455 306.875 562.005 307.803C583.555 308.73 605.984 301.312 605.984 279.521Z" fill="white"/>
<rect width="37.3803" height="47.6311" rx="18.6902" transform="matrix(-0.930405 -0.366532 -0.366532 0.930405 543.549 231.718)" fill="#222327"/>
<path d="M544.84 318.59C554.937 316.009 561.921 315.891 578.26 300.679L548.644 282.947C545.142 279.06 536.436 272.486 529.629 277.283C521.121 283.279 514.998 295.436 515.426 298.131C515.768 300.287 520.222 304.676 522.406 306.601L531.522 313.31C532.935 317.564 535.722 320.92 544.84 318.59Z" fill="white"/>
<path d="M519.011 290.595C511.333 299.872 512.643 304.326 515.094 307.72L521.252 299.858C521.863 296.452 522.984 285.795 519.011 290.595Z" fill="white"/>
<path d="M533.733 304.341C534.564 305.587 551.558 314.551 555.538 316.282C555.019 317.32 547.934 316.438 543.078 314.205C537.578 311.676 532.695 302.783 533.733 304.341Z" fill="#F2F2F2"/>
<path d="M594.82 288.494C589.012 280.111 586.443 273.686 567.457 264.278L562.511 298.392C560.371 303.099 557.734 313.64 564.305 318.139C572.519 323.764 585.242 324.858 587.433 323.447C589.185 322.318 591.425 316.539 592.326 313.791L594.936 302.819C598.133 299.908 600.064 296.063 594.82 288.494Z" fill="white"/>
<path d="M581.417 324.317C592.902 327.936 597.728 325.097 601.666 316.622L589.155 318.753C585.769 319.469 575.475 322.444 581.417 324.317Z" fill="white"/>
<path d="M537.996 292.044C532.454 311.595 543.43 317.117 587.947 325.958L585.685 306.852L564.31 292.044C550.941 284.397 540.598 282.866 537.996 292.044Z" fill="white"/>
<path d="M584.101 325.483C591.199 328.781 598.666 326.212 604.031 314.667C609.396 303.122 609.04 293.741 601.942 290.442C594.845 287.144 587.488 285.926 580.181 301.651C574.815 313.196 573.123 320.381 584.101 325.483Z" fill="white"/>
<path d="M590.128 320.645C593.398 321.734 598.485 317.906 600.09 313.086C601.993 307.374 601.534 302.796 597.305 301.388C593.513 300.125 587.662 300.13 585.071 307.911C583.168 313.623 584.554 318.788 590.128 320.645Z" fill="#222327"/>
<path fill-rule="evenodd" clip-rule="evenodd" d="M606.068 278.765C596.199 281 583.295 282.418 566.898 281.92C547.069 281.319 530.272 278.836 517.202 275.922C517.435 258.152 521.098 238.233 525.154 227.927C536.226 230.672 548.871 231.922 562.563 231.922C575.072 231.922 586.652 230.879 596.933 228.605C601.382 240.666 605.863 262.997 606.068 278.765Z" fill="#222327"/>
<path d="M546.083 258.038C543.703 236.661 532.841 230.619 522.631 227.677C518.477 226.48 511.728 226.638 508.094 228.196C503.694 230.081 498.749 233.907 495.115 242.733C491.48 251.558 486.897 264.787 484.82 278.286L484.793 278.466C482.715 291.968 479.547 312.551 520.896 312.551C554.964 312.551 548.249 277.497 546.083 258.038Z" fill="#3786E2"/>
<path d="M528.197 271.831C538.075 266.37 541.655 253.936 536.194 244.058L535.77 243.292C531.209 235.041 521.592 230.987 512.5 233.48C499.859 236.948 493.714 251.258 499.903 262.812L501.269 265.363C506.263 274.396 517.635 277.671 526.669 272.676L528.197 271.831Z" fill="#222327"/>
<path d="M517.498 286.44C516.949 287.892 517.96 289.621 519.238 290.104C520.516 290.587 522.366 289.941 522.915 288.488C523.464 287.036 522.721 284.905 521.443 284.421C519.739 283.777 518.047 284.988 517.498 286.44Z" fill="#2D68AE"/>
<path d="M510.76 285.602C511.074 287.122 509.803 288.67 508.465 288.946C507.127 289.223 505.402 288.294 505.088 286.773C504.774 285.253 505.843 283.265 507.181 282.988C508.965 282.62 510.446 284.081 510.76 285.602Z" fill="#2D68AE"/>
<path d="M503.306 293.296C502.957 297.719 507.146 299.704 513.038 300.17C518.93 300.636 523.281 299.325 523.631 294.903C524.038 289.758 521.123 285.394 514.249 284.851C507.375 284.307 503.744 287.763 503.306 293.296Z" fill="#2D68AE"/>
<path d="M514.987 292.886C514.886 294.169 515.569 295.64 516.678 295.727C517.787 295.815 519.662 294.911 519.814 292.995C519.956 291.194 518.071 290.401 516.044 290.571C514.802 290.676 515.089 291.603 514.987 292.886Z" fill="#3475C2"/>
<path d="M517.077 292.859C517.057 293.11 516.965 293.308 516.586 293.278C516.207 293.248 516.147 293.038 516.167 292.787C516.187 292.536 516.355 292.344 516.658 292.368C516.961 292.392 517.097 292.608 517.077 292.859Z" fill="white"/>
<path d="M512.16 292.662C512.058 293.945 511.153 295.289 510.044 295.202C508.934 295.114 507.225 293.927 507.376 292.01C507.519 290.21 509.505 289.722 511.48 290.209C512.69 290.508 512.261 291.378 512.16 292.662Z" fill="#3475C2"/>
<path d="M510.1 292.307C510.08 292.558 510.14 292.768 510.519 292.798C510.898 292.828 510.99 292.63 511.01 292.379C511.03 292.128 510.894 291.912 510.591 291.888C510.288 291.864 510.12 292.056 510.1 292.307Z" fill="white"/>
<path d="M500.075 175.372C500.075 205.359 527.879 216.506 565.805 216.506C603.731 216.506 630.906 205.359 630.906 175.372C630.906 140.49 603.731 109.557 565.805 109.557C527.879 109.557 500.075 137.857 500.075 175.372Z" fill="#F3D6DD"/>
<path d="M569.387 171.19C569.387 181.107 575.434 191.986 583.884 191.986C592.335 191.986 605.985 183.906 605.985 169.092C605.985 155.176 591.239 150.227 576 152.768C566.661 154.326 569.387 161.273 569.387 171.19Z" fill="#222327"/>
<path d="M544.38 171.19C544.38 181.107 538.775 191.986 530.943 191.986C523.11 191.986 510.458 183.906 510.458 169.092C510.458 155.176 524.126 150.227 538.25 152.768C546.907 154.326 544.38 161.273 544.38 171.19Z" fill="#222327"/>
<path d="M566.031 185.458C566.614 184.61 567.775 184.395 568.624 184.978C569.472 185.561 569.687 186.722 569.104 187.571L566.031 185.458ZM556.146 183.399L554.382 182.793C554.641 182.04 555.349 181.535 556.146 181.535C556.942 181.535 557.65 182.04 557.909 182.793L556.146 183.399ZM543.187 187.571C542.604 186.722 542.819 185.561 543.668 184.978C544.516 184.395 545.677 184.61 546.26 185.458L543.187 187.571ZM569.104 187.571C568.614 188.284 567.728 189.233 566.543 190.017C565.347 190.808 563.745 191.494 561.857 191.494V187.765C562.824 187.765 563.72 187.413 564.487 186.906C565.265 186.392 565.807 185.783 566.031 185.458L569.104 187.571ZM561.857 191.494C559.51 191.494 557.777 189.827 556.711 188.418C555.582 186.926 554.786 185.18 554.382 184.006L557.909 182.793C558.219 183.695 558.85 185.065 559.685 186.169C560.582 187.355 561.347 187.765 561.857 187.765V191.494ZM557.909 184.006C557.505 185.18 556.709 186.926 555.58 188.418C554.515 189.827 552.781 191.494 550.435 191.494V187.765C550.944 187.765 551.709 187.355 552.606 186.169C553.441 185.065 554.072 183.695 554.382 182.793L557.909 184.006ZM550.435 191.494C548.547 191.494 546.944 190.808 545.748 190.017C544.563 189.233 543.678 188.284 543.187 187.571L546.26 185.458C546.484 185.783 547.026 186.392 547.805 186.906C548.571 187.413 549.467 187.765 550.435 187.765V191.494Z" fill="#222327"/>
<path d="M546.637 181.799C546.637 183.232 553.064 185.053 555.304 185.644C555.805 185.777 556.322 185.777 556.823 185.644C559.063 185.053 565.49 183.232 565.49 181.799C565.49 180.064 560.278 178.208 556.063 178.208C551.849 178.208 546.637 180.064 546.637 181.799Z" fill="#222327"/>
<path d="M554.68 134.151C594.748 136.67 604.52 123.88 605.986 118.483L583.509 105.949L558.1 101.249L522.919 119.528C525.036 123.88 530.04 132.602 554.68 134.151Z" fill="#222327"/>
<path fill-rule="evenodd" clip-rule="evenodd" d="M563.562 232.084C512.231 232.084 474.599 216.879 474.599 175.972C474.599 124.798 512.231 86.1936 563.562 86.1936C614.893 86.1936 651.673 128.39 651.673 175.972C651.673 216.879 614.893 232.084 563.562 232.084ZM565.578 216.373C527.82 216.373 500.14 205.238 500.14 175.282C500.14 137.807 527.82 109.536 565.578 109.536C603.336 109.536 630.391 140.437 630.391 175.282C630.391 205.238 603.336 216.373 565.578 216.373Z" fill="white"/>
<path d="M619.113 216.771C609.899 230.582 600.274 228.446 591.448 231.042L570.483 259.367C570.83 262.829 582.573 277.746 625.768 261.963C675.09 243.942 663.803 194.217 647.514 190.458C621.152 184.374 625.541 207.136 619.113 216.771Z" fill="#222327"/>
<rect width="5.19171" height="15.5751" rx="2.59585" transform="matrix(-1 0 0 1 584.754 237.271)" fill="white"/>
<path fill-rule="evenodd" clip-rule="evenodd" d="M584.754 249.73V250.25C584.754 251.683 583.592 252.845 582.158 252.845C580.724 252.845 579.562 251.683 579.562 250.25V249.73H584.754Z" fill="#256FC5"/>
<rect width="5.19171" height="15.5751" rx="2.59585" transform="matrix(-1 0 0 1 560.299 237.271)" fill="white"/>
<path fill-rule="evenodd" clip-rule="evenodd" d="M560.299 249.73V250.25C560.299 251.683 559.137 252.845 557.703 252.845C556.269 252.845 555.107 251.683 555.107 250.25V249.73H560.299Z" fill="#256FC5"/>
<path d="M599.109 296.093C598.38 295.822 597.482 296.428 597.104 297.446C596.725 298.465 596.418 299.29 597.739 299.781C599.059 300.271 599.365 299.446 599.744 298.428C600.123 297.409 599.838 296.364 599.109 296.093Z" fill="#222327"/>
<path d="M602.804 297.996C602.152 297.573 601.143 297.969 600.552 298.881C599.961 299.792 599.482 300.531 600.664 301.297C601.846 302.063 602.325 301.324 602.916 300.413C603.507 299.501 603.457 298.419 602.804 297.996Z" fill="#222327"/>
<path d="M594.677 295.02C595.454 295.048 596.053 295.951 596.013 297.037C595.974 298.122 595.942 299.003 594.534 298.952C593.127 298.9 593.159 298.02 593.198 296.934C593.238 295.849 593.9 294.991 594.677 295.02Z" fill="#222327"/>
<path d="M578.961 169.981C579.134 169.289 580.518 167.904 582.595 167.904C584.672 167.904 586.056 169.289 586.749 169.981" stroke="white" stroke-width="2.98324" stroke-linecap="round"/>
<path d="M540.022 169.981C539.849 169.289 538.465 167.904 536.388 167.904C534.312 167.904 532.927 169.289 532.235 169.981" stroke="white" stroke-width="2.98324" stroke-linecap="round"/>
<path fill-rule="evenodd" clip-rule="evenodd" d="M287.257 0C274.002 0 263.257 10.7452 263.257 24V59.5341C263.257 72.789 274.002 83.5341 287.257 83.5341H282.052V103.165L315.883 83.5341H400.478C413.733 83.5341 424.478 72.789 424.478 59.5341V24C424.478 10.7452 413.733 0 400.478 0H287.257Z" fill="#97C7FF"/>
<circle cx="304.189" cy="41.7666" r="20.8835" fill="#52A2FF"/>
<ellipse cx="304.189" cy="38.8429" rx="1.67068" ry="2.92369" fill="#1E86FF"/>
<ellipse cx="317.137" cy="39.2602" rx="1.25301" ry="2.50602" fill="#1E86FF"/>
<path fill-rule="evenodd" clip-rule="evenodd" d="M306.485 44.5024C306.276 50.0498 306.391 54.5707 310.037 54.7155C313.683 54.8603 316.104 50.4401 316.423 44.8971L306.485 44.5024Z" fill="#1E86FF"/>
<rect x="335.932" y="22.554" width="63.4859" height="7.51807" rx="3.75904" fill="#52A2FF"/>
<rect x="335.932" y="37.5901" width="42.6024" height="7.51807" rx="3.75904" fill="#52A2FF"/>
<rect x="335.932" y="52.6262" width="28.4016" height="7.51807" rx="3.75904" fill="#52A2FF"/>
<path fill-rule="evenodd" clip-rule="evenodd" d="M442.244 93.5576C455.499 93.5576 466.244 104.303 466.244 117.558V145.574C466.244 158.78 455.578 169.495 442.39 169.573H447.449V189.204L413.618 169.574H329.023C315.768 169.574 305.023 158.829 305.023 145.574V117.558C305.023 104.303 315.768 93.5576 329.023 93.5576H442.244Z" fill="#97C7FF"/>
<path d="M326.596 121.693C327.583 119.319 330.946 119.319 331.934 121.693L332.675 123.476C333.091 124.476 334.033 125.16 335.113 125.247L337.037 125.401C339.6 125.607 340.639 128.805 338.687 130.478L337.221 131.733C336.398 132.439 336.038 133.545 336.29 134.599L336.737 136.477C337.334 138.978 334.613 140.955 332.419 139.615L330.772 138.608C329.847 138.043 328.683 138.043 327.758 138.608L326.111 139.615C323.917 140.955 321.196 138.978 321.792 136.477L322.24 134.599C322.492 133.545 322.132 132.439 321.309 131.733L319.843 130.478C317.89 128.805 318.93 125.607 321.493 125.401L323.417 125.247C324.497 125.16 325.438 124.476 325.855 123.476L326.596 121.693Z" fill="#52A2FF"/>
<path d="M355.577 121.693C356.565 119.319 359.928 119.319 360.915 121.693L361.657 123.476C362.073 124.476 363.014 125.16 364.095 125.247L366.019 125.401C368.582 125.607 369.621 128.805 367.668 130.478L366.202 131.733C365.379 132.439 365.019 133.545 365.271 134.599L365.719 136.477C366.315 138.978 363.595 140.955 361.4 139.615L359.753 138.608C358.828 138.043 357.665 138.043 356.74 138.608L355.092 139.615C352.898 140.955 350.177 138.978 350.774 136.477L351.222 134.599C351.473 133.545 351.114 132.439 350.291 131.733L348.825 130.478C346.872 128.805 347.911 125.607 350.474 125.401L352.398 125.247C353.479 125.16 354.42 124.476 354.836 123.476L355.577 121.693Z" fill="#52A2FF"/>
<path d="M383.107 121.476C384.108 119.14 387.419 119.14 388.42 121.476L389.287 123.498C389.71 124.486 390.647 125.158 391.719 125.241L393.81 125.404C396.397 125.605 397.429 128.85 395.434 130.509L393.97 131.726C393.119 132.433 392.747 133.564 393.011 134.638L393.48 136.548C394.092 139.037 391.403 141.031 389.199 139.725L387.238 138.562C386.329 138.023 385.198 138.023 384.29 138.562L382.328 139.725C380.124 141.031 377.436 139.037 378.047 136.548L378.517 134.638C378.781 133.564 378.408 132.433 377.557 131.726L376.093 130.509C374.098 128.85 375.13 125.605 377.717 125.404L379.808 125.241C380.88 125.158 381.817 124.486 382.24 123.498L383.107 121.476Z" fill="#52A2FF"/>
<path d="M410.613 121.693C411.6 119.319 414.963 119.319 415.95 121.693L416.692 123.476C417.108 124.476 418.049 125.16 419.13 125.247L421.054 125.401C423.617 125.607 424.656 128.805 422.703 130.478L421.237 131.733C420.414 132.439 420.055 133.545 420.306 134.599L420.754 136.477C421.351 138.978 418.63 140.955 416.436 139.615L414.788 138.608C413.863 138.043 412.7 138.043 411.775 138.608L410.127 139.615C407.933 140.955 405.212 138.978 405.809 136.477L406.257 134.599C406.508 133.545 406.149 132.439 405.326 131.733L403.86 130.478C401.907 128.805 402.946 125.607 405.509 125.401L407.433 125.247C408.514 125.16 409.455 124.476 409.871 123.476L410.613 121.693Z" fill="#52A2FF"/>
<path d="M437.661 121.693C438.649 119.319 442.012 119.319 442.999 121.693L443.741 123.476C444.157 124.476 445.098 125.16 446.178 125.247L448.103 125.401C450.666 125.607 451.705 128.805 449.752 130.478L448.286 131.733C447.463 132.439 447.103 133.545 447.355 134.599L447.803 136.477C448.399 138.978 445.679 140.955 443.484 139.615L441.837 138.608C440.912 138.043 439.749 138.043 438.824 138.608L437.176 139.615C434.982 140.955 432.261 138.978 432.858 136.477L433.306 134.599C433.557 133.545 433.198 132.439 432.375 131.733L430.909 130.478C428.956 128.805 429.995 125.607 432.558 125.401L434.482 125.247C435.563 125.16 436.504 124.476 436.92 123.476L437.661 121.693Z" fill="#52A2FF"/>
</g>
<defs>
<linearGradient id="paint0_linear_8532_15759" x1="373" y1="202.59" x2="373" y2="606.895" gradientUnits="userSpaceOnUse">
<stop stop-color="#E18745"/>
<stop offset="1" stop-color="#D7A37E" stop-opacity="0"/>
</linearGradient>
<clipPath id="clip0_8532_15759">
<rect width="746" height="397" fill="white"/>
</clipPath>
</defs>
</svg>
