<svg width="588" height="444" viewBox="0 0 588 444" fill="none" xmlns="http://www.w3.org/2000/svg">
<g clip-path="url(#clip0_8532_16010)">
<rect width="588" height="444" rx="12" fill="#F3F4F6"/>
<g opacity="0.5" clip-path="url(#clip1_8532_16010)">
<path d="M-43.6328 328.56C-43.6328 323.79 -39.7659 319.923 -34.9959 319.923H82.4842C87.2543 319.923 91.1212 323.79 91.1212 328.56V398.572C91.1212 401.752 88.5432 404.33 85.3632 404.33H-37.8748C-41.0549 404.33 -43.6328 401.752 -43.6328 398.572V328.56Z" fill="#0C7AFF"/>
<path fill-rule="evenodd" clip-rule="evenodd" d="M-122.363 305C-127.133 305 -131 308.867 -131 313.637V392.242C-131 392.253 -131 392.264 -131 392.275V487.42C-131 490.6 -128.422 493.178 -125.242 493.178H95.7297C98.9098 493.178 101.488 490.6 101.488 487.42V341.97C101.488 338.79 98.9098 336.212 95.7297 336.212H-37V313.637C-37 308.867 -40.8669 305 -45.6369 305H-122.363Z" fill="#3692FF"/>
</g>
<g opacity="0.5" clip-path="url(#clip2_8532_16010)">
<path d="M573.367 328.56C573.367 323.79 577.234 319.923 582.004 319.923H699.484C704.254 319.923 708.121 323.79 708.121 328.56V398.572C708.121 401.752 705.543 404.33 702.363 404.33H579.125C575.945 404.33 573.367 401.752 573.367 398.572V328.56Z" fill="#0C7AFF"/>
<path fill-rule="evenodd" clip-rule="evenodd" d="M494.637 305C489.867 305 486 308.867 486 313.637V392.242C486 392.253 486 392.264 486 392.275V487.42C486 490.6 488.578 493.178 491.758 493.178H712.73C715.91 493.178 718.488 490.6 718.488 487.42V341.97C718.488 338.79 715.91 336.212 712.73 336.212H580V313.637C580 308.867 576.133 305 571.363 305H494.637Z" fill="#3692FF"/>
</g>
</g>
<g clip-path="url(#clip3_8532_16010)">
<path d="M264.367 328.195C264.367 323.425 268.234 319.558 273.004 319.558H390.484C395.254 319.558 399.121 323.425 399.121 328.195V398.206C399.121 401.386 396.543 403.964 393.363 403.964H270.125C266.945 403.964 264.367 401.386 264.367 398.206V328.195Z" fill="#0C7AFF"/>
<path fill-rule="evenodd" clip-rule="evenodd" d="M185.637 304.634C180.867 304.634 177 308.501 177 313.271V391.876C177 391.887 177 391.898 177 391.909V487.055C177 490.235 179.578 492.812 182.758 492.812H403.73C406.91 492.812 409.488 490.235 409.488 487.055V341.604C409.488 338.424 406.91 335.846 403.73 335.846H271V313.271C271 308.501 267.133 304.634 262.363 304.634H185.637Z" fill="#3692FF"/>
</g>
<path d="M76 127.711C76 118.62 83.3697 111.25 92.4607 111.25H190.539C199.63 111.25 207 118.62 207 127.711V230.546C207 237.174 201.627 242.546 195 242.546H88C81.3726 242.546 76 237.174 76 230.546V127.711Z" fill="#8698FF"/>
<path d="M124.306 143.469L127.394 130.549C127.571 129.806 128.579 129.688 128.922 130.37L134.896 142.227L141.928 202.586L131.337 203.828L124.306 143.469Z" fill="#E02D2C"/>
<path fill-rule="evenodd" clip-rule="evenodd" d="M134.086 140.751C132.66 141.782 130.96 142.474 129.089 142.694C127.5 142.881 125.952 142.708 124.527 142.239L127.326 130.556C127.504 129.814 128.511 129.695 128.855 130.377L134.086 140.751Z" fill="white"/>
<path fill-rule="evenodd" clip-rule="evenodd" d="M130.235 133.161C129.705 133.422 129.124 133.598 128.505 133.671C127.843 133.749 127.197 133.702 126.587 133.548L127.304 130.559C127.481 129.816 128.488 129.698 128.832 130.379L130.235 133.161Z" fill="#E02D2C"/>
<path d="M149.326 142.226L155.304 130.371C155.648 129.689 156.655 129.808 156.833 130.551L159.916 143.472L152.863 203.828L142.273 202.582L149.326 142.226Z" fill="#292424"/>
<path fill-rule="evenodd" clip-rule="evenodd" d="M159.461 141.86C157.842 142.527 156.035 142.802 154.172 142.582C152.576 142.393 151.103 141.862 149.82 141.069L155.224 130.36C155.568 129.679 156.575 129.798 156.753 130.541L159.461 141.86Z" fill="white"/>
<path fill-rule="evenodd" clip-rule="evenodd" d="M157.549 133.281C156.981 133.408 156.382 133.442 155.771 133.37C155.102 133.291 154.476 133.091 153.913 132.795L155.293 130.061C155.637 129.38 156.643 129.499 156.821 130.241L157.549 133.281Z" fill="#292424"/>
<path d="M118.523 166.747C118.523 164.031 120.725 161.83 123.44 161.83H160.722C163.438 161.83 165.639 164.031 165.639 166.747V208.549C165.639 215.177 160.266 220.549 153.639 220.549H130.523C123.896 220.549 118.523 215.177 118.523 208.549V166.747Z" fill="#5F76FF"/>
<rect x="118.523" y="178.255" width="47.1153" height="20.9418" fill="#FFD875"/>
<path d="M237 127.711C237 118.62 244.37 111.25 253.461 111.25H351.539C360.63 111.25 368 118.62 368 127.711V230.546C368 237.174 362.627 242.546 356 242.546H249C242.373 242.546 237 237.174 237 230.546V127.711Z" fill="#B9D9FF"/>
<path d="M271.979 138.547L327.536 134.944C330.219 134.77 332.491 136.899 332.491 139.588V211.31C332.491 213.88 330.407 215.963 327.837 215.963H271.979V138.547Z" fill="#F3F4F6"/>
<path d="M271.979 138.547L328.739 140.862C331.233 140.964 333.203 143.015 333.203 145.512V214.27C333.203 216.936 330.968 219.057 328.306 218.917L271.979 215.963V138.547Z" fill="#4E93EF"/>
<path d="M308.643 139.974L322.169 140.509V160.309L315.406 156.242L308.643 160.309V139.974Z" fill="white"/>
<path d="M393 127.083C393 118.339 400.088 111.25 408.832 111.25H508.168C516.912 111.25 524 118.339 524 127.083V230.546C524 237.174 518.627 242.546 512 242.546H405C398.373 242.546 393 237.174 393 230.546V127.083Z" fill="#FFB9E3"/>
<path d="M451.793 179.78C451.996 179.111 453.501 177.774 457.893 177.774C462.285 177.774 463.993 179.111 464.298 179.78" stroke="#FF46C0" stroke-width="3.84902"/>
<path d="M448.053 186.555L447.03 187.42V187.534C446.76 187.748 446.451 187.995 446.111 188.267C444.966 189.186 443.433 190.429 441.766 191.784C441.231 192.219 440.682 192.666 440.127 193.117C437.228 195.474 434.171 197.961 432.095 199.615C431.777 199.848 431.208 199.848 430.89 199.615C428.421 197.647 424.497 194.442 421.146 191.689C419.467 190.31 417.936 189.048 416.812 188.118C416.074 187.508 415.557 187.078 415.275 186.844C415.103 186.701 415.018 186.631 415.026 186.638C412.842 184.624 411.66 182.034 411.66 179.378V179.012C411.854 173.92 416.681 169.339 422.789 169.339C423.607 169.339 424.75 169.607 425.914 170.184C426.981 170.714 427.871 171.409 428.449 172.13C429.817 174.65 433.594 174.592 434.851 171.956C435.301 171.259 436.128 170.545 437.221 169.983C438.381 169.387 439.512 169.13 440.196 169.13C446.471 169.13 451.13 173.657 451.325 179.01V179.378C451.325 182.288 450.112 184.815 448.053 186.555Z" stroke="#FF68CC" stroke-width="5.77353"/>
<path d="M500.076 186.555L499.053 187.42V187.534C498.783 187.748 498.474 187.995 498.135 188.267C496.989 189.186 495.456 190.429 493.79 191.784C493.254 192.219 492.705 192.666 492.15 193.117C489.252 195.474 486.194 197.961 484.118 199.615C483.801 199.848 483.231 199.848 482.914 199.615C480.444 197.647 476.52 194.442 473.169 191.689C471.49 190.31 469.96 189.048 468.835 188.118C468.097 187.508 467.58 187.078 467.299 186.844C467.126 186.701 467.042 186.631 467.049 186.638C464.866 184.624 463.684 182.034 463.684 179.378V179.012C463.878 173.92 468.704 169.339 474.813 169.339C475.631 169.339 476.774 169.607 477.937 170.184C479.005 170.714 479.895 171.409 480.472 172.13C481.841 174.65 485.617 174.592 486.875 171.956C487.324 171.259 488.152 170.545 489.245 169.983C490.405 169.387 491.535 169.13 492.22 169.13C498.494 169.13 503.154 173.657 503.349 179.01V179.378C503.349 182.288 502.135 184.815 500.076 186.555Z" stroke="#FF68CC" stroke-width="5.77353"/>
<path d="M414.53 140.505C414.61 140.035 415.285 140.035 415.365 140.505L415.718 142.573C416.404 146.59 418.962 150.041 422.606 151.865C422.842 151.983 422.842 152.32 422.606 152.438C418.962 154.262 416.404 157.713 415.718 161.73L415.365 163.798C415.285 164.268 414.61 164.268 414.53 163.798L414.176 161.73C413.49 157.713 410.932 154.262 407.288 152.438C407.053 152.32 407.053 151.983 407.288 151.865C410.932 150.041 413.49 146.59 414.176 142.573L414.53 140.505Z" fill="white"/>
<path d="M430.801 136.196C430.851 135.897 431.28 135.897 431.331 136.196L431.555 137.526C431.979 140.049 433.575 142.22 435.856 143.379C436.003 143.454 436.003 143.664 435.856 143.739C433.575 144.897 431.979 147.069 431.555 149.592L431.331 150.922C431.28 151.221 430.851 151.221 430.801 150.922L430.577 149.592C430.152 147.069 428.556 144.897 426.276 143.739C426.129 143.664 426.129 143.454 426.276 143.379C428.556 142.22 430.152 140.049 430.577 137.526L430.801 136.196Z" fill="white"/>
<path d="M413.485 266.107C411.669 263.329 412.446 259.6 415.22 257.778C417.994 255.957 421.715 256.732 423.531 259.51L506.27 386.099C508.086 388.877 507.309 392.606 504.534 394.427C501.76 396.249 498.039 395.474 496.224 392.696L413.485 266.107Z" fill="#374151"/>
<path fill-rule="evenodd" clip-rule="evenodd" d="M429.006 267.884L418.96 274.482L413.486 266.107C411.671 263.329 412.448 259.6 415.222 257.779C417.996 255.957 421.717 256.732 423.533 259.51L429.006 267.884Z" fill="#3692FF"/>
<path d="M418.967 274.487L429.006 267.894C429.913 269.283 429.525 271.146 428.139 272.056L423.119 275.352C421.733 276.262 419.874 275.875 418.967 274.487Z" fill="#111827"/>
<defs>
<clipPath id="clip0_8532_16010">
<path d="M0 0H588V432C588 438.627 582.627 444 576 444H12C5.37258 444 0 438.627 0 432V0Z" fill="white"/>
</clipPath>
<clipPath id="clip1_8532_16010">
<rect width="293" height="162" fill="white" transform="translate(-159 282)"/>
</clipPath>
<clipPath id="clip2_8532_16010">
<rect width="293" height="162" fill="white" transform="translate(458 282)"/>
</clipPath>
<clipPath id="clip3_8532_16010">
<path d="M149 281.634H442V432C442 438.627 436.627 444 430 444H161C154.373 444 149 438.627 149 432V281.634Z" fill="white"/>
</clipPath>
</defs>
</svg>
