<svg width="396" height="132" viewBox="0 0 396 132" fill="none" xmlns="http://www.w3.org/2000/svg">
<rect y="12.9844" width="103.529" height="103.88" rx="28.9317" fill="#3692FF"/>
<path d="M49.9906 41.9061C51.283 46.372 47.866 51.2931 43.9492 52.4342C40.0324 53.5753 34.6813 51.2086 33.389 46.7427C32.0967 42.2767 34.8096 36.0888 38.7264 34.9477C43.9492 33.4262 48.6983 37.4401 49.9906 41.9061Z" fill="#222327"/>
<path d="M52.1441 41.9061C50.8518 46.372 54.2688 51.2931 58.1856 52.4342C62.1024 53.5753 67.4535 51.2086 68.7458 46.7427C70.0381 42.2767 67.3252 36.0888 63.4084 34.9477C58.1856 33.4262 53.4364 37.4401 52.1441 41.9061Z" fill="#222327"/>
<path d="M76.3971 74.5322C76.3971 85.8915 65.2589 90.1139 50.0657 90.1139C34.8725 90.1139 23.9863 85.8915 23.9863 74.5322C23.9863 61.319 34.8725 49.6016 50.0657 49.6016C65.2589 49.6016 76.3971 60.3217 76.3971 74.5322Z" fill="#F3D6DD"/>
<path d="M45.0365 72.2896C45.0365 76.01 42.6485 80.0912 39.3115 80.0912C35.9745 80.0912 30.584 77.0599 30.584 71.5025C30.584 66.282 36.4074 64.4253 42.4249 65.3786C46.1131 65.9629 45.0365 68.5693 45.0365 72.2896Z" fill="#222327"/>
<path d="M42.2445 71.9139C42.2445 72.472 42.0767 72.9244 41.2375 72.9244C40.3983 72.9244 40.2305 72.472 40.2305 71.9139C40.2305 71.3559 40.5661 70.9035 41.2375 70.9035C41.9088 70.9035 42.2445 71.3559 42.2445 71.9139Z" fill="white"/>
<path d="M55.1882 72.2897C55.1882 76.01 57.5761 80.0913 60.9131 80.0913C64.2501 80.0913 69.6406 77.06 69.6406 71.5026C69.6406 66.282 63.8172 64.4253 57.7997 65.3787C54.1115 65.963 55.1882 68.5694 55.1882 72.2897Z" fill="#222327"/>
<path d="M57.982 71.9139C57.982 72.472 58.1499 72.9244 58.9891 72.9244C59.8283 72.9244 59.9961 72.472 59.9961 71.9139C59.9961 71.3559 59.6604 70.9035 58.9891 70.9035C58.3177 70.9035 57.982 71.3559 57.982 71.9139Z" fill="white"/>
<path d="M46.2655 77.6707C46.0623 77.3741 45.6572 77.2984 45.3606 77.5016C45.064 77.7048 44.9883 78.11 45.1915 78.4066L46.2655 77.6707ZM49.999 76.87L50.6148 76.659C50.5247 76.3958 50.2772 76.219 49.999 76.219C49.7208 76.219 49.4734 76.3958 49.3832 76.659L49.999 76.87ZM54.8065 78.4066C55.0097 78.11 54.934 77.7048 54.6375 77.5016C54.3409 77.2984 53.9357 77.3741 53.7325 77.6707L54.8065 78.4066ZM45.1915 78.4066C45.3714 78.669 45.698 79.0209 46.136 79.3115C46.5781 79.6047 47.1686 79.8582 47.8638 79.8582V78.5563C47.4913 78.5563 47.1477 78.4202 46.8557 78.2266C46.5598 78.0302 46.3526 77.7978 46.2655 77.6707L45.1915 78.4066ZM47.8638 79.8582C48.7192 79.8582 49.3555 79.248 49.7515 78.7226C50.1696 78.1678 50.4651 77.518 50.6148 77.081L49.3832 76.659C49.266 77.001 49.0277 77.5199 48.7118 77.939C48.3738 78.3874 48.0759 78.5563 47.8638 78.5563V79.8582ZM49.3832 77.081C49.5329 77.518 49.8284 78.1678 50.2465 78.7226C50.6425 79.248 51.2788 79.8582 52.1343 79.8582V78.5563C51.9221 78.5563 51.6242 78.3874 51.2862 77.939C50.9703 77.5199 50.732 77.001 50.6148 76.659L49.3832 77.081ZM52.1343 79.8582C52.8294 79.8582 53.42 79.6047 53.862 79.3115C54.3 79.0209 54.6267 78.669 54.8065 78.4066L53.7325 77.6707C53.6455 77.7978 53.4383 78.0302 53.1423 78.2266C52.8504 78.4202 52.5068 78.5563 52.1343 78.5563V79.8582Z" fill="#222327"/>
<path d="M53.5531 76.2691C53.5531 76.8106 51.1149 77.4998 50.2943 77.7164C50.1189 77.7627 49.9381 77.7627 49.7627 77.7164C48.9421 77.4998 46.5039 76.8106 46.5039 76.2691C46.5039 75.618 48.4527 74.9218 50.0285 74.9218C51.6043 74.9218 53.5531 75.618 53.5531 76.2691Z" fill="#222327"/>
<path d="M49.6071 58.9512C39.8126 58.9512 36.2132 55.5103 35.6309 53.4976L40.2896 48.4336L50.3835 46.6807L64.3597 53.4976C63.5185 55.1207 59.4123 58.9512 49.6071 58.9512Z" fill="#222327"/>
<path fill-rule="evenodd" clip-rule="evenodd" d="M50.9631 95.7631C71.2031 95.7631 86.0411 90.0587 86.0411 74.7124C86.0411 55.5141 71.2031 41.0312 50.9631 41.0312C30.723 41.0312 16.2207 56.8614 16.2207 74.7124C16.2207 90.0587 30.723 95.7631 50.9631 95.7631ZM50.1675 89.8696C65.0556 89.8696 75.9701 85.6922 75.9701 74.454C75.9701 60.395 65.0556 49.7891 50.1675 49.7891C35.2794 49.7891 24.6118 61.3816 24.6118 74.454C24.6118 85.6922 35.2794 89.8696 50.1675 89.8696Z" fill="white"/>
<path d="M183.487 54.3351H191.449V63.6233H183.487V82.4651H171.545V70.7885C163.053 72.5135 154.627 73.4423 142.354 73.4423H128.421V64.3531H133.729V45.5113H129.748V36.5548H166.37V45.5113H162.39V63.358C165.641 62.9599 168.692 62.4955 171.545 61.9647V35.8914H183.487V54.3351ZM134.989 98.2551V78.5508H147.197V89.0332H184.814V98.2551H134.989ZM145.671 64.3531C147.33 64.2868 148.922 64.2868 150.448 64.2204V45.5113H145.671V64.3531ZM257.793 58.9792V68.2674H249.832V98.2551H237.89V87.839C229.398 90.2938 220.972 91.687 208.698 91.687H196.756V37.8817H230.724V46.8382H208.698V82.5978C220.839 82.5978 229.464 81.4036 237.89 79.0152V35.8914H249.832V58.9792H257.793ZM324.137 58.9792V68.2674H316.176V98.2551H304.234V35.8914H316.176V58.9792H324.137ZM263.1 91.687V37.8817H297.799V91.687H263.1ZM275.042 82.5978H285.989V46.9709H275.042V82.5978ZM374.891 35.8914H386.501V71.85H374.891V35.8914ZM325.464 64.7512C333.227 63.1589 339.065 60.7042 342.316 57.586L329.445 58.3821V49.7573H345.102V45.5113H330.772V36.5548H356.712V48.4968H360.494V36.2231H371.773V71.85H360.494V57.785H354.988C351.471 64.6185 342.647 70.2578 329.246 73.6413L325.464 64.7512ZM332.696 88.7679C349.083 88.1708 353.86 84.7872 353.86 79.0152V73.9731H365.802V80.0767C365.802 81.669 365.603 83.1949 365.205 84.5882C372.9 85.1189 380.53 86.1804 386.501 87.5737L383.317 98.2551C376.483 95.8667 366.929 93.5447 359.234 92.2841C353.727 95.9994 344.903 97.7907 333.956 98.2551L332.696 88.7679Z" fill="#3692FF"/>
</svg>
