<svg width="40" height="40" viewBox="0 0 40 40" fill="none" xmlns="http://www.w3.org/2000/svg">
<g clip-path="url(#clip0_3001_4230)">
<circle cx="20" cy="20" r="20" fill="#D1D5DB"/>
<path d="M19.3739 8.72951C19.8843 10.4932 18.5348 12.4367 16.988 12.8873C15.4412 13.338 13.3279 12.4033 12.8175 10.6396C12.3071 8.87588 13.3785 6.43213 14.9254 5.98149C16.988 5.38058 18.8636 6.96579 19.3739 8.72951Z" fill="white"/>
<path d="M20.2247 8.72951C19.7143 10.4932 21.0638 12.4367 22.6106 12.8873C24.1575 13.338 26.2708 12.4033 26.7811 10.6396C27.2915 8.87588 26.2201 6.43213 24.6732 5.98149C22.6106 5.38058 20.7351 6.96579 20.2247 8.72951Z" fill="white"/>
<path d="M29.8014 21.6147C29.8014 26.1008 25.4026 27.7683 19.4024 27.7683C13.4023 27.7683 9.10303 26.1008 9.10303 21.6147C9.10303 16.3964 13.4023 11.7689 19.4024 11.7689C25.4026 11.7689 29.8014 16.0026 29.8014 21.6147Z" fill="white"/>
<path d="M17.4166 20.7286C17.4166 22.1978 16.4736 23.8096 15.1557 23.8096C13.8379 23.8096 11.709 22.6125 11.709 20.4177C11.709 18.356 14.0088 17.6227 16.3853 17.9992C17.8418 18.23 17.4166 19.2593 17.4166 20.7286Z" fill="#D1D5DB"/>
<path d="M16.3159 20.5796C16.3159 20.8 16.2496 20.9787 15.9182 20.9787C15.5868 20.9787 15.5205 20.8 15.5205 20.5796C15.5205 20.3592 15.6531 20.1806 15.9182 20.1806C16.1833 20.1806 16.3159 20.3592 16.3159 20.5796Z" fill="white"/>
<path d="M21.4257 20.7285C21.4257 22.1977 22.3687 23.8095 23.6866 23.8095C25.0044 23.8095 27.1333 22.6124 27.1333 20.4176C27.1333 18.3559 24.8335 17.6226 22.457 17.9991C21.0005 18.2299 21.4257 19.2592 21.4257 20.7285Z" fill="#D1D5DB"/>
<path d="M22.5283 20.5796C22.5283 20.8 22.5946 20.9787 22.926 20.9787C23.2574 20.9787 23.3237 20.8 23.3237 20.5796C23.3237 20.3592 23.1912 20.1806 22.926 20.1806C22.6609 20.1806 22.5283 20.3592 22.5283 20.5796Z" fill="white"/>
<path fill-rule="evenodd" clip-rule="evenodd" d="M19.7573 30.0001C27.7506 30.0001 33.6105 27.7473 33.6105 21.6867C33.6105 14.1048 27.7506 8.38515 19.7573 8.38515C11.764 8.38515 6.03662 14.6369 6.03662 21.6867C6.03662 27.7473 11.764 30.0001 19.7573 30.0001ZM19.4427 27.6725C25.3224 27.6725 29.6328 26.0228 29.6328 21.5845C29.6328 16.0322 25.3224 11.8437 19.4427 11.8437C13.563 11.8437 9.35009 16.4219 9.35009 21.5845C9.35009 26.0228 13.563 27.6725 19.4427 27.6725Z" fill="white"/>
<mask id="mask0_3001_4230" style="mask-type:alpha" maskUnits="userSpaceOnUse" x="0" y="0" width="40" height="40">
<circle cx="20" cy="20" r="20" fill="#9CA3AF"/>
</mask>
<g mask="url(#mask0_3001_4230)">
<ellipse cx="19.5835" cy="37.5" rx="11.25" ry="12.5" fill="white"/>
</g>
</g>
<defs>
<clipPath id="clip0_3001_4230">
<rect width="40" height="40" fill="white"/>
</clipPath>
</defs>
</svg>
