<svg width="16" height="16" viewBox="0 0 16 16" fill="none" xmlns="http://www.w3.org/2000/svg">
<path d="M3.55724 9.31157C3.40753 9.18016 3.28776 9.07475 3.19998 8.99739V8.95147L3.02424 8.77574C2.33044 8.08193 1.93331 7.16547 1.93331 6.2V6.07612C1.99478 4.2062 3.59184 2.66667 5.46665 2.66667C5.74493 2.66667 6.11414 2.76344 6.48219 2.96162C6.82952 3.14864 7.13439 3.40383 7.33683 3.68842C7.63132 4.31494 8.53911 4.30366 8.81151 3.65457C8.97925 3.36092 9.27324 3.0955 9.62555 2.89902C9.99318 2.694 10.3596 2.6 10.6 2.6C12.5293 2.6 14.0717 4.12742 14.1333 6.07581V6.2C14.1333 7.24201 13.7299 8.14473 13.0612 8.75771L12.8666 8.93606V8.97957C12.7656 9.06525 12.6352 9.17766 12.4834 9.30974C12.1462 9.6029 11.6948 9.99999 11.2033 10.4332C11.0456 10.5722 10.8837 10.7149 10.7201 10.8592C9.86388 11.6143 8.95934 12.4119 8.34597 12.9417C8.16945 13.0861 7.89717 13.0861 7.72065 12.9417C6.98844 12.3093 5.82583 11.2962 4.83648 10.4316C4.34085 9.9984 3.88911 9.60286 3.55724 9.31157Z" stroke="#4B5563" stroke-width="1.2"/>
</svg>
