<svg width="589" height="444" viewBox="0 0 589 444" fill="none" xmlns="http://www.w3.org/2000/svg">
<g clip-path="url(#clip0_10723_3222)">
<rect x="0.5" width="588" height="444" rx="12" fill="#F3F4F6"/>
<rect x="52.5" y="161" width="133" height="133" rx="22" fill="#F9FAFB"/>
<rect x="-104.5" y="161" width="133" height="133" rx="22" fill="#F9FAFB"/>
<rect x="403.5" y="161" width="133" height="133" rx="22" fill="#F9FAFB"/>
<rect x="560.5" y="161" width="133" height="133" rx="22" fill="#F9FAFB"/>
</g>
<rect x="209.5" y="143.323" width="170" height="170.384" rx="22" fill="#E5E7EB"/>
<rect x="209.5" y="143.323" width="170" height="170.384" rx="22" fill="url(#paint0_linear_10723_3222)"/>
<path d="M283.833 245.169C283.833 232.787 286.764 229.009 292.418 225.337C297.13 222.293 300.689 219.67 300.689 215.368C300.689 211.485 297.548 208.862 293.674 208.862C289.591 208.862 286.032 211.905 285.927 216.417H267.5C267.709 200.257 279.54 193.437 293.779 193.437C309.484 193.437 321.001 200.467 321.001 214.318C321.001 223.238 316.185 228.59 308.96 232.787C303.516 236.04 300.794 239.083 300.794 245.169V246.848H283.833V245.169ZM292.523 271.613C286.869 271.613 282.262 267.1 282.367 261.434C282.262 255.872 286.869 251.36 292.523 251.36C297.862 251.36 302.679 255.872 302.679 261.434C302.679 267.1 297.862 271.613 292.523 271.613Z" fill="#D1D5DB"/>
<path d="M434.546 350.47C437.394 353.325 442.017 353.33 444.872 350.481C447.727 347.633 447.732 343.01 444.884 340.155L434.546 350.47ZM391.331 307.158L434.546 350.47L444.884 340.155L401.669 296.842L391.331 307.158Z" fill="#3692FF"/>
<path d="M411.486 263.738C411.486 293.012 387.813 316.716 358.644 316.716C329.476 316.716 305.802 293.012 305.802 263.738C305.802 234.464 329.476 210.76 358.644 210.76C387.813 210.76 411.486 234.464 411.486 263.738Z" stroke="black" stroke-width="14.6041"/>
<defs>
<linearGradient id="paint0_linear_10723_3222" x1="236.5" y1="150.84" x2="357.869" y2="325.478" gradientUnits="userSpaceOnUse">
<stop stop-color="#BFD5FF"/>
<stop offset="1" stop-color="#E5E7EB" stop-opacity="0"/>
</linearGradient>
<clipPath id="clip0_10723_3222">
<rect width="588" height="444" fill="white" transform="translate(0.5)"/>
</clipPath>
</defs>
</svg>
