<svg width="589" height="444" viewBox="0 0 589 444" fill="none" xmlns="http://www.w3.org/2000/svg">
<g clip-path="url(#clip0_10723_3309)">
<rect x="0.5" width="588" height="444" rx="12" fill="#F3F4F6"/>
<g opacity="0.5" clip-path="url(#clip1_10723_3309)">
<path d="M-43.1321 328.56C-43.1321 323.79 -39.2652 319.923 -34.4951 319.923H82.9849C87.755 319.923 91.6219 323.79 91.6219 328.56V398.571C91.6219 401.751 89.044 404.329 85.8639 404.329H-37.3741C-40.5541 404.329 -43.1321 401.751 -43.1321 398.571V328.56Z" fill="#0C7AFF"/>
<path fill-rule="evenodd" clip-rule="evenodd" d="M-121.863 305C-126.633 305 -130.5 308.867 -130.5 313.637V392.242C-130.5 392.253 -130.5 392.264 -130.5 392.275V487.42C-130.5 490.6 -127.922 493.178 -124.742 493.178H96.2297C99.4098 493.178 101.988 490.6 101.988 487.42V341.97C101.988 338.79 99.4098 336.212 96.2297 336.212H-36.5V313.637C-36.5 308.867 -40.3669 305 -45.1369 305H-121.863Z" fill="#3692FF"/>
</g>
<g opacity="0.5" clip-path="url(#clip2_10723_3309)">
<path d="M573.868 328.56C573.868 323.79 577.735 319.923 582.505 319.923H699.985C704.755 319.923 708.622 323.79 708.622 328.56V398.571C708.622 401.751 706.044 404.329 702.864 404.329H579.626C576.446 404.329 573.868 401.751 573.868 398.571V328.56Z" fill="#0C7AFF"/>
<path fill-rule="evenodd" clip-rule="evenodd" d="M495.137 305C490.367 305 486.5 308.867 486.5 313.637V392.242C486.5 392.253 486.5 392.264 486.5 392.275V487.42C486.5 490.6 489.078 493.178 492.258 493.178H713.23C716.41 493.178 718.988 490.6 718.988 487.42V341.97C718.988 338.79 716.41 336.212 713.23 336.212H580.5V313.637C580.5 308.867 576.633 305 571.863 305H495.137Z" fill="#3692FF"/>
</g>
</g>
<g clip-path="url(#clip3_10723_3309)">
<path d="M264.868 328.195C264.868 323.425 268.735 319.558 273.505 319.558H390.985C395.755 319.558 399.622 323.425 399.622 328.195V398.206C399.622 401.386 397.044 403.964 393.864 403.964H270.626C267.446 403.964 264.868 401.386 264.868 398.206V328.195Z" fill="#0C7AFF"/>
<path fill-rule="evenodd" clip-rule="evenodd" d="M186.137 304.635C181.367 304.635 177.5 308.502 177.5 313.272V391.877C177.5 391.888 177.5 391.899 177.5 391.91V487.055C177.5 490.235 180.078 492.813 183.258 492.813H404.23C407.41 492.813 409.988 490.235 409.988 487.055V341.605C409.988 338.425 407.41 335.847 404.23 335.847H271.5V313.272C271.5 308.502 267.633 304.635 262.863 304.635H186.137Z" fill="#3692FF"/>
</g>
<path d="M76.5 127.712C76.5 118.621 83.8697 111.251 92.9607 111.251H191.039C200.13 111.251 207.5 118.621 207.5 127.712V230.547C207.5 237.174 202.127 242.547 195.5 242.547H88.5C81.8726 242.547 76.5 237.174 76.5 230.547V127.712Z" fill="#8698FF"/>
<path d="M124.807 143.469L127.895 130.549C128.073 129.806 129.08 129.688 129.424 130.37L135.398 142.227L142.429 202.586L131.839 203.828L124.807 143.469Z" fill="#E02D2C"/>
<path fill-rule="evenodd" clip-rule="evenodd" d="M134.587 140.752C133.161 141.782 131.46 142.474 129.59 142.694C128.001 142.881 126.453 142.708 125.027 142.24L127.827 130.557C128.005 129.814 129.012 129.696 129.355 130.377L134.587 140.752Z" fill="white"/>
<path fill-rule="evenodd" clip-rule="evenodd" d="M130.735 133.162C130.206 133.422 129.624 133.599 129.005 133.671C128.344 133.749 127.697 133.702 127.088 133.548L127.804 130.559C127.982 129.817 128.989 129.698 129.332 130.38L130.735 133.162Z" fill="#E02D2C"/>
<path d="M149.826 142.226L155.804 130.372C156.148 129.69 157.156 129.808 157.333 130.552L160.416 143.472L153.363 203.829L142.773 202.583L149.826 142.226Z" fill="#292424"/>
<path fill-rule="evenodd" clip-rule="evenodd" d="M159.96 141.861C158.341 142.527 156.534 142.802 154.671 142.582C153.075 142.394 151.602 141.862 150.319 141.069L155.724 130.361C156.067 129.68 157.074 129.798 157.252 130.541L159.96 141.861Z" fill="white"/>
<path fill-rule="evenodd" clip-rule="evenodd" d="M158.049 133.282C157.481 133.408 156.882 133.443 156.27 133.371C155.601 133.292 154.976 133.092 154.413 132.795L155.793 130.061C156.137 129.38 157.143 129.499 157.321 130.242L158.049 133.282Z" fill="#292424"/>
<path d="M119.024 166.747C119.024 164.032 121.225 161.831 123.94 161.831H161.222C163.938 161.831 166.139 164.032 166.139 166.747V208.55C166.139 215.178 160.766 220.55 154.139 220.55H131.024C124.396 220.55 119.024 215.178 119.024 208.55V166.747Z" fill="#5F76FF"/>
<rect x="119.024" y="178.256" width="47.1153" height="20.9418" fill="#FFD875"/>
<path d="M237.5 127.712C237.5 118.621 244.87 111.251 253.961 111.251H352.039C361.13 111.251 368.5 118.621 368.5 127.712V230.547C368.5 237.174 363.127 242.547 356.5 242.547H249.5C242.873 242.547 237.5 237.174 237.5 230.547V127.712Z" fill="#B9D9FF"/>
<path d="M272.479 138.547L328.037 134.944C330.72 134.77 332.991 136.9 332.991 139.588V211.31C332.991 213.88 330.908 215.964 328.338 215.964H272.479V138.547Z" fill="#F3F4F6"/>
<path d="M272.479 138.547L329.24 140.862C331.734 140.964 333.703 143.015 333.703 145.512V214.27C333.703 216.936 331.468 219.057 328.806 218.917L272.479 215.963V138.547Z" fill="#4E93EF"/>
<path d="M309.142 139.975L322.669 140.51V160.31L315.905 156.243L309.142 160.31V139.975Z" fill="white"/>
<path d="M393.5 127.083C393.5 118.339 400.588 111.251 409.332 111.251H508.668C517.412 111.251 524.5 118.339 524.5 127.083V230.547C524.5 237.174 519.127 242.547 512.5 242.547H405.5C398.873 242.547 393.5 237.174 393.5 230.547V127.083Z" fill="#FFB9E3"/>
<path d="M452.294 179.781C452.497 179.112 454.002 177.775 458.394 177.775C462.786 177.775 464.494 179.112 464.799 179.781" stroke="#FF46C0" stroke-width="3.84902"/>
<path d="M448.555 186.556L447.531 187.421V187.535C447.261 187.749 446.952 187.996 446.613 188.268C445.467 189.187 443.934 190.43 442.268 191.785C441.732 192.22 441.183 192.666 440.628 193.118C437.73 195.475 434.672 197.962 432.597 199.615C432.279 199.848 431.709 199.848 431.392 199.615C428.922 197.648 424.998 194.443 421.647 191.69C419.968 190.311 418.438 189.049 417.313 188.119C416.575 187.509 416.058 187.079 415.777 186.845C415.604 186.702 415.52 186.632 415.527 186.638C413.344 184.625 412.162 182.035 412.162 179.379V179.013C412.356 173.921 417.182 169.339 423.291 169.339C424.109 169.339 425.252 169.607 426.415 170.185C427.483 170.715 428.373 171.41 428.95 172.131C430.319 174.651 434.095 174.593 435.353 171.957C435.803 171.26 436.63 170.546 437.723 169.984C438.883 169.387 440.013 169.131 440.698 169.131C446.972 169.131 451.632 173.657 451.827 179.011V179.379C451.827 182.289 450.613 184.815 448.555 186.556Z" stroke="#FF68CC" stroke-width="5.77353"/>
<path d="M500.577 186.556L499.554 187.421V187.535C499.284 187.749 498.975 187.996 498.636 188.268C497.49 189.187 495.957 190.43 494.291 191.785C493.755 192.22 493.206 192.666 492.651 193.118C489.753 195.475 486.695 197.962 484.619 199.615C484.302 199.848 483.732 199.848 483.415 199.615C480.945 197.648 477.021 194.443 473.67 191.69C471.991 190.311 470.461 189.049 469.336 188.119C468.598 187.509 468.081 187.079 467.8 186.845C467.627 186.702 467.543 186.632 467.55 186.638C465.367 184.625 464.185 182.035 464.185 179.379V179.013C464.379 173.921 469.205 169.339 475.314 169.339C476.132 169.339 477.275 169.607 478.438 170.185C479.506 170.715 480.396 171.41 480.973 172.131C482.341 174.651 486.118 174.593 487.376 171.957C487.825 171.26 488.653 170.546 489.746 169.984C490.906 169.387 492.036 169.131 492.72 169.131C498.995 169.131 503.655 173.657 503.85 179.011V179.379C503.85 182.289 502.636 184.815 500.577 186.556Z" stroke="#FF68CC" stroke-width="5.77353"/>
<path d="M415.03 140.505C415.11 140.035 415.785 140.035 415.865 140.505L416.219 142.573C416.905 146.59 419.462 150.041 423.106 151.865C423.342 151.983 423.342 152.32 423.106 152.438C419.462 154.262 416.905 157.713 416.219 161.73L415.865 163.798C415.785 164.268 415.11 164.268 415.03 163.798L414.677 161.73C413.991 157.713 411.433 154.262 407.789 152.438C407.553 152.32 407.553 151.983 407.789 151.865C411.433 150.041 413.991 146.59 414.677 142.573L415.03 140.505Z" fill="white"/>
<path d="M431.301 136.196C431.351 135.898 431.78 135.898 431.83 136.196L432.054 137.527C432.479 140.049 434.075 142.221 436.355 143.38C436.503 143.454 436.503 143.664 436.355 143.739C434.075 144.898 432.479 147.07 432.054 149.592L431.83 150.922C431.78 151.221 431.351 151.221 431.301 150.922L431.077 149.592C430.652 147.07 429.056 144.898 426.775 143.739C426.628 143.664 426.628 143.454 426.775 143.38C429.056 142.221 430.652 140.049 431.077 137.527L431.301 136.196Z" fill="white"/>
<path d="M413.986 266.106C412.17 263.328 412.947 259.599 415.721 257.778C418.495 255.956 422.216 256.732 424.032 259.51L506.771 386.099C508.587 388.877 507.81 392.605 505.035 394.427C502.261 396.249 498.54 395.473 496.725 392.695L413.986 266.106Z" fill="#374151"/>
<path fill-rule="evenodd" clip-rule="evenodd" d="M429.506 267.884L419.46 274.482L413.986 266.107C412.17 263.329 412.947 259.6 415.722 257.779C418.496 255.957 422.217 256.732 424.033 259.51L429.506 267.884Z" fill="#3692FF"/>
<path d="M419.466 274.486L429.505 267.894C430.412 269.282 430.024 271.145 428.638 272.056L423.619 275.352C422.232 276.262 420.373 275.874 419.466 274.486Z" fill="#111827"/>
<defs>
<clipPath id="clip0_10723_3309">
<path d="M0.5 0H588.5V432C588.5 438.627 583.127 444 576.5 444H12.5C5.87258 444 0.5 438.627 0.5 432V0Z" fill="white"/>
</clipPath>
<clipPath id="clip1_10723_3309">
<rect width="293" height="162" fill="white" transform="translate(-158.5 282)"/>
</clipPath>
<clipPath id="clip2_10723_3309">
<rect width="293" height="162" fill="white" transform="translate(458.5 282)"/>
</clipPath>
<clipPath id="clip3_10723_3309">
<path d="M149.5 281.635H442.5V432C442.5 438.628 437.127 444 430.5 444H161.5C154.873 444 149.5 438.628 149.5 432V281.635Z" fill="white"/>
</clipPath>
</defs>
</svg>
