<svg width="88" height="42" viewBox="0 0 88 42" fill="none" xmlns="http://www.w3.org/2000/svg">
<rect width="88" height="42" rx="8" fill="#3692FF"/>
<path d="M36.375 25.3125V26.75H23.4688V25.3125H29.0312V23.0156H25V18.3906H33.125V16.6406H24.9688V15.2344H34.8438V19.7656H26.7344V21.5938H35.1719V23.0156H30.75V25.3125H36.375ZM48.5312 15.6406V17.2344C48.5312 19.125 48.5312 21.0781 48.0156 24.0469L46.25 23.8906C46.7969 21.1094 46.7969 19.0625 46.7969 17.2344V17.0469H38.6562V15.6406H48.5312ZM50.1719 25.0312V26.4531H37.2969V25.0312H50.1719ZM62.8906 14.2812V24.4844H61.1406V14.2812H62.8906ZM63.2812 26.7031V28.1094H53.5469V23.4531H55.2969V26.7031H63.2812ZM55.1875 15.2031C57.3281 15.2031 58.9844 16.6875 58.9844 18.7344C58.9844 20.8281 57.3281 22.2812 55.1875 22.2812C53.0312 22.2812 51.375 20.8281 51.375 18.7344C51.375 16.6875 53.0312 15.2031 55.1875 15.2031ZM55.1875 16.7188C53.9844 16.7188 53.0625 17.5156 53.0781 18.7344C53.0625 19.9844 53.9844 20.7656 55.1875 20.7656C56.3594 20.7656 57.2812 19.9844 57.2812 18.7344C57.2812 17.5156 56.3594 16.7188 55.1875 16.7188Z" fill="#F3F4F6"/>
</svg>
