<svg width="40" height="40" viewBox="0 0 40 40" fill="none" xmlns="http://www.w3.org/2000/svg">
<g clip-path="url(#clip0_18204_1797)">
<circle cx="20" cy="20" r="20" fill="#D1D5DB"/>
<path d="M19.3749 8.72968C19.8853 10.4934 18.5358 12.4368 16.989 12.8875C15.4421 13.3381 13.3289 12.4035 12.8185 10.6398C12.3081 8.87604 13.3795 6.4323 14.9264 5.98165C16.989 5.38075 18.8645 6.96596 19.3749 8.72968Z" fill="#F9FAFB"/>
<path d="M20.2257 8.72968C19.7153 10.4934 21.0648 12.4368 22.6116 12.8875C24.1585 13.3381 26.2717 12.4035 26.7821 10.6398C27.2925 8.87604 26.2211 6.4323 24.6742 5.98165C22.6116 5.38075 20.736 6.96596 20.2257 8.72968Z" fill="#F9FAFB"/>
<path d="M29.8018 21.6148C29.8018 26.1009 25.4031 27.7684 19.4029 27.7684C13.4027 27.7684 9.10352 26.1009 9.10352 21.6148C9.10352 16.3965 13.4027 11.769 19.4029 11.769C25.4031 11.769 29.8018 16.0027 29.8018 21.6148Z" fill="#F9FAFB"/>
<path d="M17.4176 20.7284C17.4176 22.1976 16.4746 23.8094 15.1567 23.8094C13.8388 23.8094 11.71 22.6123 11.71 20.4175C11.71 18.3558 14.0098 17.6226 16.3862 17.9991C17.8428 18.2298 17.4176 19.2592 17.4176 20.7284Z" fill="#D1D5DB"/>
<path d="M16.3169 20.5797C16.3169 20.8001 16.2506 20.9788 15.9192 20.9788C15.5878 20.9788 15.5215 20.8001 15.5215 20.5797C15.5215 20.3593 15.6541 20.1807 15.9192 20.1807C16.1843 20.1807 16.3169 20.3593 16.3169 20.5797Z" fill="#F9FAFB"/>
<path d="M21.4261 20.7284C21.4261 22.1976 22.3692 23.8094 23.6871 23.8094C25.0049 23.8094 27.1338 22.6123 27.1338 20.4175C27.1338 18.3558 24.834 17.6226 22.4575 17.9991C21.001 18.2298 21.4261 19.2592 21.4261 20.7284Z" fill="#D1D5DB"/>
<path d="M22.5288 20.5797C22.5288 20.8001 22.5951 20.9788 22.9265 20.9788C23.2579 20.9788 23.3242 20.8001 23.3242 20.5797C23.3242 20.3593 23.1917 20.1807 22.9265 20.1807C22.6614 20.1807 22.5288 20.3593 22.5288 20.5797Z" fill="#F9FAFB"/>
<path fill-rule="evenodd" clip-rule="evenodd" d="M19.7578 30.0002C27.7511 30.0002 33.611 27.7474 33.611 21.6868C33.611 14.1049 27.7511 8.38525 19.7578 8.38525C11.7645 8.38525 6.03711 14.637 6.03711 21.6868C6.03711 27.7474 11.7645 30.0002 19.7578 30.0002ZM19.4432 27.6726C25.3229 27.6726 29.6333 26.0229 29.6333 21.5846C29.6333 16.0324 25.3229 11.8438 19.4432 11.8438C13.5635 11.8438 9.35058 16.422 9.35058 21.5846C9.35058 26.0229 13.5635 27.6726 19.4432 27.6726Z" fill="#F9FAFB"/>
<mask id="mask0_18204_1797" style="mask-type:alpha" maskUnits="userSpaceOnUse" x="0" y="0" width="40" height="40">
<circle cx="20" cy="20" r="20" fill="#9CA3AF"/>
</mask>
<g mask="url(#mask0_18204_1797)">
<ellipse cx="19.583" cy="37.5" rx="11.25" ry="12.5" fill="#F9FAFB"/>
</g>
</g>
<defs>
<clipPath id="clip0_18204_1797">
<rect width="40" height="40" fill="white"/>
</clipPath>
</defs>
</svg>
