<svg width="396" height="132" viewBox="0 0 396 132" fill="none" xmlns="http://www.w3.org/2000/svg">
<rect y="12.9847" width="103.529" height="103.88" rx="28.9317" fill="#3692FF"/>
<path d="M49.9887 41.9063C51.281 46.3723 47.864 51.2933 43.9472 52.4344C40.0304 53.5755 34.6794 51.2088 33.387 46.7429C32.0947 42.2769 34.8077 36.0891 38.7244 34.948C43.9472 33.4264 48.6964 37.4403 49.9887 41.9063Z" fill="#222327"/>
<path d="M52.1431 41.9063C50.8508 46.3723 54.2678 51.2933 58.1846 52.4344C62.1014 53.5755 67.4525 51.2088 68.7448 46.7429C70.0371 42.2769 67.3242 36.0891 63.4074 34.948C58.1846 33.4264 53.4355 37.4403 52.1431 41.9063Z" fill="#222327"/>
<path d="M76.3971 74.5325C76.3971 85.8918 65.2589 90.1142 50.0657 90.1142C34.8725 90.1142 23.9863 85.8918 23.9863 74.5325C23.9863 61.3193 34.8725 49.6019 50.0657 49.6019C65.2589 49.6019 76.3971 60.322 76.3971 74.5325Z" fill="#F3D6DD"/>
<path d="M45.0355 72.2898C45.0355 76.0101 42.6475 80.0913 39.3106 80.0913C35.9736 80.0913 30.583 77.06 30.583 71.5027C30.583 66.2821 36.4064 64.4254 42.4239 65.3787C46.1121 65.963 45.0355 68.5695 45.0355 72.2898Z" fill="#222327"/>
<path d="M42.2445 71.9142C42.2445 72.4723 42.0767 72.9247 41.2375 72.9247C40.3983 72.9247 40.2305 72.4723 40.2305 71.9142C40.2305 71.3562 40.5661 70.9038 41.2375 70.9038C41.9088 70.9038 42.2445 71.3562 42.2445 71.9142Z" fill="white"/>
<path d="M55.1872 72.29C55.1872 76.0103 57.5751 80.0916 60.9121 80.0916C64.2491 80.0916 69.6396 77.0603 69.6396 71.5029C69.6396 66.2823 63.8162 64.4256 57.7987 65.379C54.1105 65.9633 55.1872 68.5697 55.1872 72.29Z" fill="#222327"/>
<path d="M57.9801 71.9142C57.9801 72.4723 58.1479 72.9246 58.9871 72.9246C59.8263 72.9246 59.9941 72.4723 59.9941 71.9142C59.9941 71.3562 59.6585 70.9038 58.9871 70.9038C58.3158 70.9038 57.9801 71.3562 57.9801 71.9142Z" fill="white"/>
<path d="M46.2655 77.6709C46.0623 77.3744 45.6572 77.2987 45.3606 77.5019C45.064 77.7051 44.9883 78.1102 45.1915 78.4068L46.2655 77.6709ZM49.999 76.8702L50.6148 76.6593C50.5247 76.3961 50.2772 76.2193 49.999 76.2193C49.7208 76.2193 49.4734 76.3961 49.3832 76.6593L49.999 76.8702ZM54.8065 78.4068C55.0097 78.1102 54.934 77.7051 54.6375 77.5019C54.3409 77.2987 53.9357 77.3744 53.7325 77.6709L54.8065 78.4068ZM45.1915 78.4068C45.3714 78.6693 45.698 79.0211 46.136 79.3117C46.5781 79.6049 47.1686 79.8584 47.8638 79.8584V78.5565C47.4913 78.5565 47.1477 78.4205 46.8557 78.2268C46.5598 78.0305 46.3526 77.798 46.2655 77.6709L45.1915 78.4068ZM47.8638 79.8584C48.7192 79.8584 49.3555 79.2482 49.7515 78.7228C50.1696 78.1681 50.4651 77.5183 50.6148 77.0812L49.3832 76.6593C49.266 77.0013 49.0277 77.5201 48.7118 77.9392C48.3738 78.3877 48.0759 78.5565 47.8638 78.5565V79.8584ZM49.3832 77.0812C49.5329 77.5183 49.8284 78.1681 50.2465 78.7228C50.6425 79.2482 51.2788 79.8584 52.1343 79.8584V78.5565C51.9221 78.5565 51.6242 78.3877 51.2862 77.9392C50.9703 77.5201 50.732 77.0013 50.6148 76.6593L49.3832 77.0812ZM52.1343 79.8584C52.8294 79.8584 53.42 79.6049 53.862 79.3117C54.3 79.0211 54.6267 78.6693 54.8065 78.4068L53.7325 77.6709C53.6455 77.798 53.4383 78.0305 53.1423 78.2268C52.8504 78.4205 52.5068 78.5565 52.1343 78.5565V79.8584Z" fill="#222327"/>
<path d="M53.5541 76.2695C53.5541 76.811 51.1159 77.5002 50.2953 77.7169C50.1199 77.7632 49.939 77.7632 49.7637 77.7169C48.9431 77.5002 46.5049 76.811 46.5049 76.2695C46.5049 75.6185 48.4537 74.9223 50.0295 74.9223C51.6053 74.9223 53.5541 75.6185 53.5541 76.2695Z" fill="#222327"/>
<path d="M49.6071 58.9515C39.8126 58.9515 36.2132 55.5105 35.6309 53.4979L40.2896 48.4338L50.3835 46.6809L64.3597 53.4979C63.5185 55.121 59.4123 58.9515 49.6071 58.9515Z" fill="#222327"/>
<path fill-rule="evenodd" clip-rule="evenodd" d="M50.9611 95.7635C71.2012 95.7635 86.0392 90.0591 86.0392 74.7128C86.0392 55.5146 71.2012 41.0317 50.9611 41.0317C30.7211 41.0317 16.2188 56.8618 16.2188 74.7128C16.2188 90.0591 30.7211 95.7635 50.9611 95.7635ZM50.166 89.8699C65.0541 89.8699 75.9686 85.6925 75.9686 74.4543C75.9686 60.3953 65.0541 49.7893 50.166 49.7893C35.2779 49.7893 24.6103 61.3819 24.6103 74.4543C24.6103 85.6925 35.2779 89.8699 50.166 89.8699Z" fill="white"/>
<path d="M183.486 55.3345H191.448V64.6227H183.486V83.4645H171.544V71.7879C163.052 73.5128 154.626 74.4417 142.353 74.4417H128.42V65.3525H133.728V46.5107H129.747V37.5542H166.369V46.5107H162.389V64.3573C165.64 63.9592 168.691 63.4948 171.544 62.9641V36.8907H183.486V55.3345ZM134.988 99.2545V79.5502H147.196V90.0326H184.813V99.2545H134.988ZM145.67 65.3525C147.329 65.2861 148.921 65.2861 150.447 65.2198V46.5107H145.67V65.3525ZM257.792 59.9786V69.2668H249.831V99.2545H237.889V88.8384C229.397 91.2931 220.971 92.6864 208.697 92.6864H196.755V38.8811H230.723V47.8376H208.697V83.5972C220.838 83.5972 229.463 82.403 237.889 80.0146V36.8907H249.831V59.9786H257.792ZM324.136 59.9786V69.2668H316.175V99.2545H304.233V36.8907H316.175V59.9786H324.136ZM263.1 92.6864V38.8811H297.798V92.6864H263.1ZM275.042 83.5972H285.988V47.9702H275.042V83.5972ZM374.89 36.8907H386.5V72.8494H374.89V36.8907ZM325.463 65.7505C333.226 64.1583 339.064 61.7035 342.315 58.5853L329.444 59.3815V50.7567H345.101V46.5107H330.771V37.5542H356.711V49.4962H360.493V37.2224H371.772V72.8494H360.493V58.7844H354.987C351.47 65.6179 342.646 71.2571 329.245 74.6407L325.463 65.7505ZM332.695 89.7672C349.082 89.1701 353.859 85.7866 353.859 80.0146V74.9724H365.801V81.0761C365.801 82.6684 365.602 84.1943 365.204 85.5875C372.9 86.1183 380.529 87.1798 386.5 88.573L383.316 99.2545C376.482 96.8661 366.929 94.544 359.233 93.2835C353.726 96.9988 344.902 98.7901 333.955 99.2545L332.695 89.7672Z" fill="#3692FF"/>
</svg>
