<svg width="396" height="132" viewBox="0 0 396 132" fill="none" xmlns="http://www.w3.org/2000/svg">
<rect y="12.9847" width="103.529" height="103.88" rx="28.9317" fill="#3692FF"/>
<path d="M49.9902 41.9063C51.2825 46.3722 47.8655 51.2933 43.9487 52.4344C40.0319 53.5755 34.6808 51.2088 33.3885 46.7429C32.0962 42.2769 34.8091 36.089 38.7259 34.9479C43.9487 33.4264 48.6978 37.4403 49.9902 41.9063Z" fill="#222327"/>
<path d="M52.1441 41.9063C50.8518 46.3722 54.2688 51.2933 58.1856 52.4344C62.1024 53.5755 67.4535 51.2088 68.7458 46.7429C70.0381 42.2769 67.3252 36.089 63.4084 34.9479C58.1856 33.4264 53.4364 37.4403 52.1441 41.9063Z" fill="#222327"/>
<path d="M76.3973 74.5325C76.3973 85.8918 65.2591 90.1142 50.066 90.1142C34.8728 90.1142 23.9866 85.8918 23.9866 74.5325C23.9866 61.3192 34.8728 49.6018 50.066 49.6018C65.2591 49.6018 76.3973 60.322 76.3973 74.5325Z" fill="#F3D6DD"/>
<path d="M45.0362 72.2897C45.0362 76.01 42.6483 80.0913 39.3113 80.0913C35.9743 80.0913 30.5837 77.06 30.5837 71.5026C30.5837 66.2821 36.4072 64.4254 42.4247 65.3787C46.1128 65.963 45.0362 68.5694 45.0362 72.2897Z" fill="#222327"/>
<path d="M42.2448 71.9142C42.2448 72.4722 42.0769 72.9246 41.2377 72.9246C40.3986 72.9246 40.2307 72.4722 40.2307 71.9142C40.2307 71.3561 40.5664 70.9038 41.2377 70.9038C41.9091 70.9038 42.2448 71.3561 42.2448 71.9142Z" fill="white"/>
<path d="M55.1867 72.29C55.1867 76.0103 57.5746 80.0916 60.9116 80.0916C64.2486 80.0916 69.6392 77.0603 69.6392 71.5029C69.6392 66.2823 63.8157 64.4256 57.7982 65.3789C54.1101 65.9633 55.1867 68.5697 55.1867 72.29Z" fill="#222327"/>
<path d="M57.9811 71.9142C57.9811 72.4722 58.1489 72.9246 58.9881 72.9246C59.8273 72.9246 59.9951 72.4722 59.9951 71.9142C59.9951 71.3561 59.6594 70.9038 58.9881 70.9038C58.3167 70.9038 57.9811 71.3561 57.9811 71.9142Z" fill="white"/>
<path d="M46.2653 77.6709C46.0621 77.3743 45.6569 77.2987 45.3603 77.5019C45.0638 77.7051 44.9881 78.1102 45.1913 78.4068L46.2653 77.6709ZM49.9988 76.8702L50.6146 76.6593C50.5244 76.3961 50.277 76.2193 49.9988 76.2193C49.7206 76.2193 49.4731 76.3961 49.383 76.6593L49.9988 76.8702ZM54.8063 78.4068C55.0095 78.1102 54.9338 77.7051 54.6372 77.5019C54.3406 77.2987 53.9355 77.3743 53.7323 77.6709L54.8063 78.4068ZM45.1913 78.4068C45.3711 78.6693 45.6978 79.0211 46.1358 79.3117C46.5778 79.6049 47.1684 79.8584 47.8635 79.8584V78.5565C47.491 78.5565 47.1474 78.4205 46.8555 78.2268C46.5595 78.0305 46.3523 77.798 46.2653 77.6709L45.1913 78.4068ZM47.8635 79.8584C48.719 79.8584 49.3553 79.2482 49.7513 78.7228C50.1694 78.168 50.4649 77.5183 50.6146 77.0812L49.383 76.6593C49.2658 77.0013 49.0275 77.5201 48.7116 77.9392C48.3736 78.3877 48.0757 78.5565 47.8635 78.5565V79.8584ZM49.383 77.0812C49.5327 77.5183 49.8282 78.168 50.2463 78.7228C50.6423 79.2482 51.2786 79.8584 52.134 79.8584V78.5565C51.9219 78.5565 51.624 78.3877 51.286 77.9392C50.9701 77.5201 50.7318 77.0013 50.6146 76.6593L49.383 77.0812ZM52.134 79.8584C52.8292 79.8584 53.4197 79.6049 53.8618 79.3117C54.2998 79.0211 54.6264 78.6693 54.8063 78.4068L53.7323 77.6709C53.6452 77.798 53.438 78.0305 53.1421 78.2268C52.8501 78.4205 52.5065 78.5565 52.134 78.5565V79.8584Z" fill="#222327"/>
<path d="M53.5528 76.2695C53.5528 76.811 51.1146 77.5002 50.2941 77.7168C50.1187 77.7631 49.9378 77.7631 49.7624 77.7168C48.9419 77.5002 46.5037 76.811 46.5037 76.2695C46.5037 75.6184 48.4525 74.9223 50.0283 74.9223C51.6041 74.9223 53.5528 75.6184 53.5528 76.2695Z" fill="#222327"/>
<path d="M49.6068 58.9514C39.8124 58.9514 36.213 55.5105 35.6306 53.4978L40.2893 48.4338L50.3833 46.6809L64.3595 53.4978C63.5183 55.1209 59.4121 58.9514 49.6068 58.9514Z" fill="#222327"/>
<path fill-rule="evenodd" clip-rule="evenodd" d="M50.9623 95.7635C71.2024 95.7635 86.0404 90.0591 86.0404 74.7128C86.0404 55.5145 71.2024 41.0317 50.9623 41.0317C30.7223 41.0317 16.22 56.8618 16.22 74.7128C16.22 90.0591 30.7223 95.7635 50.9623 95.7635ZM50.1667 89.8699C65.0548 89.8699 75.9693 85.6925 75.9693 74.4543C75.9693 60.3953 65.0548 49.7893 50.1667 49.7893C35.2786 49.7893 24.611 61.3819 24.611 74.4543C24.611 85.6925 35.2786 89.8699 50.1667 89.8699Z" fill="white"/>
<path d="M183.487 55.3345H191.448V64.6227H183.487V83.4645H171.545V71.7879C163.053 73.5128 154.627 74.4417 142.353 74.4417H128.421V65.3525H133.728V46.5107H129.748V37.5542H166.37V46.5107H162.389V64.3573C165.64 63.9592 168.692 63.4948 171.545 62.9641V36.8907H183.487V55.3345ZM134.989 99.2545V79.5502H147.196V90.0326H184.814V99.2545H134.989ZM145.67 65.3525C147.329 65.2861 148.921 65.2861 150.447 65.2198V46.5107H145.67V65.3525ZM257.792 59.9786V69.2668H249.831V99.2545H237.889V88.8384C229.397 91.2931 220.971 92.6864 208.698 92.6864H196.756V38.8811H230.724V47.8376H208.698V83.5972C220.839 83.5972 229.463 82.403 237.889 80.0146V36.8907H249.831V59.9786H257.792ZM324.137 59.9786V69.2668H316.176V99.2545H304.234V36.8907H316.176V59.9786H324.137ZM263.1 92.6864V38.8811H297.798V92.6864H263.1ZM275.042 83.5972H285.989V47.9702H275.042V83.5972ZM374.89 36.8907H386.501V72.8494H374.89V36.8907ZM325.464 65.7505C333.226 64.1583 339.064 61.7035 342.315 58.5853L329.444 59.3815V50.7567H345.102V46.5107H330.771V37.5542H356.712V49.4962H360.494V37.2224H371.772V72.8494H360.494V58.7844H354.987C351.471 65.6179 342.647 71.2571 329.245 74.6407L325.464 65.7505ZM332.695 89.7672C349.082 89.1701 353.859 85.7866 353.859 80.0146V74.9724H365.801V81.0761C365.801 82.6684 365.602 84.1943 365.204 85.5875C372.9 86.1183 380.53 87.1798 386.501 88.573L383.316 99.2545C376.483 96.8661 366.929 94.544 359.233 93.2835C353.726 96.9988 344.903 98.7901 333.956 99.2545L332.695 89.7672Z" fill="#3692FF"/>
</svg>
