<svg width="22" height="19" viewBox="0 0 22 19" fill="none" xmlns="http://www.w3.org/2000/svg">
<path d="M14.773 9.97306L13.65 8.85001C13.8205 7.96026 13.5865 7.20129 12.948 6.57309C12.3096 5.94489 11.5435 5.70386 10.65 5.85001L9.5269 4.72696C9.75895 4.61926 9.99773 4.5417 10.2432 4.49426C10.4887 4.44683 10.741 4.42311 11 4.42311C12.1346 4.42311 13.0977 4.81895 13.8894 5.61061C14.681 6.40228 15.0769 7.36541 15.0769 8.50001C15.0769 8.75898 15.0547 9.01122 15.0105 9.25674C14.9663 9.50224 14.8871 9.74101 14.773 9.97306ZM17.9538 13.0846L16.85 12.05C17.4833 11.5667 18.05 11.0292 18.55 10.4375C19.05 9.84585 19.4666 9.20001 19.8 8.50001C18.9666 6.81668 17.7625 5.47918 16.1875 4.48751C14.6125 3.49585 12.8833 3.00001 11 3.00001C10.5166 3.00001 10.0458 3.03335 9.58745 3.10001C9.12912 3.16668 8.66662 3.26668 8.19995 3.40001L7.0346 2.23466C7.67049 1.98338 8.31888 1.79812 8.97978 1.67889C9.64066 1.55965 10.3141 1.50004 11 1.50004C13.1487 1.50004 15.1224 2.05837 16.9211 3.17504C18.7198 4.2917 20.1031 5.8026 21.0711 7.70771C21.1377 7.83463 21.1861 7.96251 21.2163 8.09136C21.2464 8.22021 21.2615 8.35643 21.2615 8.50001C21.2615 8.6436 21.249 8.77981 21.224 8.90866C21.199 9.03751 21.1531 9.1654 21.0865 9.29231C20.7326 10.0449 20.2884 10.7397 19.7538 11.3769C19.2192 12.0141 18.6192 12.5833 17.9538 13.0846ZM11 15.5C8.89484 15.5 6.96536 14.9375 5.21153 13.8125C3.45768 12.6875 2.06344 11.2058 1.02883 9.36731C0.945494 9.2404 0.884602 9.10258 0.846152 8.95386C0.807685 8.80515 0.788452 8.65386 0.788452 8.50001C0.788452 8.34616 0.805119 8.19745 0.838452 8.05386C0.871785 7.91028 0.930119 7.7699 1.01345 7.63271C1.38525 6.95323 1.80641 6.30611 2.27693 5.69136C2.74744 5.07661 3.28847 4.52565 3.9 4.03849L1.6423 1.76539C1.50384 1.61667 1.43557 1.44007 1.4375 1.23559C1.43942 1.0311 1.51281 0.856428 1.65768 0.711562C1.80254 0.566695 1.97819 0.494263 2.1846 0.494263C2.391 0.494263 2.56664 0.566695 2.7115 0.711562L19.2884 17.2885C19.4269 17.4269 19.5002 17.5984 19.5086 17.8029C19.5169 18.0073 19.4435 18.1872 19.2884 18.3423C19.1435 18.4872 18.9679 18.5596 18.7615 18.5596C18.5551 18.5596 18.3794 18.4872 18.2346 18.3423L14.7154 14.8538C14.1256 15.082 13.5195 15.2468 12.8971 15.3481C12.2746 15.4493 11.6423 15.5 11 15.5ZM4.95383 5.09229C4.36793 5.54485 3.84132 6.05672 3.374 6.62789C2.90669 7.19904 2.51534 7.82308 2.19995 8.50001C3.03329 10.1833 4.23745 11.5208 5.81245 12.5125C7.38745 13.5042 9.11662 14 11 14C11.4295 14 11.8522 13.9712 12.2683 13.9135C12.6843 13.8558 13.0974 13.7667 13.5077 13.6462L12.2423 12.35C12.0397 12.4384 11.8375 12.4984 11.6355 12.5298C11.4336 12.5612 11.2218 12.5769 11 12.5769C9.86535 12.5769 8.90222 12.1811 8.11055 11.3894C7.31889 10.5977 6.92305 9.63461 6.92305 8.50001C6.92305 8.27821 6.94036 8.06635 6.97498 7.86444C7.00959 7.6625 7.06793 7.46025 7.14998 7.25769L4.95383 5.09229Z" fill="#4B5563"/>
</svg>
