<svg width="153" height="51" viewBox="0 0 153 51" fill="none" xmlns="http://www.w3.org/2000/svg">
<rect y="5.01685" width="40" height="40.1354" rx="11.1782" fill="#3692FF"/>
<path d="M19.3139 16.1915C19.8132 17.9169 18.493 19.8183 16.9797 20.2591C15.4663 20.7 13.3989 19.7856 12.8996 18.0601C12.4003 16.3346 13.4485 13.9439 14.9618 13.503C16.9797 12.9151 18.8146 14.466 19.3139 16.1915Z" fill="#222327"/>
<path d="M20.1471 16.1915C19.6478 17.9169 20.968 19.8183 22.4813 20.2591C23.9946 20.7 26.0621 19.7856 26.5614 18.0601C27.0607 16.3346 26.0125 13.9439 24.4992 13.503C22.4813 12.9151 20.6464 14.466 20.1471 16.1915Z" fill="#222327"/>
<path d="M29.5152 28.7966C29.5152 33.1854 25.2118 34.8168 19.3417 34.8168C13.4717 34.8168 9.26562 33.1854 9.26562 28.7966C9.26562 23.6915 13.4717 19.1643 19.3417 19.1643C25.2118 19.1643 29.5152 23.3062 29.5152 28.7966Z" fill="#F3D6DD"/>
<path d="M17.4003 27.9301C17.4003 29.3675 16.4777 30.9444 15.1884 30.9444C13.8991 30.9444 11.8164 29.7732 11.8164 27.626C11.8164 25.609 14.0664 24.8916 16.3913 25.2599C17.8163 25.4857 17.4003 26.4927 17.4003 27.9301Z" fill="#222327"/>
<path d="M16.3211 27.785C16.3211 28.0007 16.2563 28.1754 15.932 28.1754C15.6078 28.1754 15.543 28.0007 15.543 27.785C15.543 27.5694 15.6727 27.3947 15.932 27.3947C16.1914 27.3947 16.3211 27.5694 16.3211 27.785Z" fill="white"/>
<path d="M21.3223 27.9301C21.3223 29.3675 22.2449 30.9444 23.5342 30.9444C24.8235 30.9444 26.9062 29.7732 26.9062 27.626C26.9062 25.609 24.6563 24.8916 22.3313 25.2599C20.9064 25.4857 21.3223 26.4927 21.3223 27.9301Z" fill="#222327"/>
<path d="M22.4015 27.7852C22.4015 28.0008 22.4664 28.1756 22.7906 28.1756C23.1148 28.1756 23.1797 28.0008 23.1797 27.7852C23.1797 27.5696 23.05 27.3948 22.7906 27.3948C22.5312 27.3948 22.4015 27.5696 22.4015 27.7852Z" fill="white"/>
<path d="M17.8735 30.0098C17.795 29.8952 17.6384 29.866 17.5239 29.9445C17.4093 30.023 17.38 30.1795 17.4585 30.2941L17.8735 30.0098ZM19.316 29.7004L19.5539 29.6189C19.5191 29.5172 19.4235 29.4489 19.316 29.4489C19.2085 29.4489 19.1129 29.5172 19.0781 29.6189L19.316 29.7004ZM21.1734 30.2941C21.2519 30.1795 21.2227 30.023 21.1081 29.9445C20.9935 29.866 20.837 29.8952 20.7585 30.0098L21.1734 30.2941ZM17.4585 30.2941C17.528 30.3955 17.6542 30.5315 17.8235 30.6437C17.9942 30.757 18.2224 30.855 18.491 30.855V30.352C18.3471 30.352 18.2143 30.2994 18.1015 30.2246C17.9872 30.1487 17.9071 30.0589 17.8735 30.0098L17.4585 30.2941ZM18.491 30.855C18.8215 30.855 19.0674 30.6192 19.2203 30.4162C19.3819 30.2019 19.4961 29.9508 19.5539 29.782L19.0781 29.6189C19.0328 29.7511 18.9407 29.9515 18.8187 30.1135C18.6881 30.2867 18.573 30.352 18.491 30.352V30.855ZM19.0781 29.782C19.1359 29.9508 19.2501 30.2019 19.4116 30.4162C19.5646 30.6192 19.8104 30.855 20.141 30.855V30.352C20.059 30.352 19.9439 30.2867 19.8133 30.1135C19.6913 29.9515 19.5992 29.7511 19.5539 29.6189L19.0781 29.782ZM20.141 30.855C20.4095 30.855 20.6377 30.757 20.8085 30.6437C20.9777 30.5315 21.1039 30.3955 21.1734 30.2941L20.7585 30.0098C20.7248 30.0589 20.6448 30.1487 20.5304 30.2246C20.4176 30.2994 20.2849 30.352 20.141 30.352V30.855Z" fill="#222327"/>
<path d="M20.6884 29.468C20.6884 29.6773 19.7464 29.9435 19.4293 30.0272C19.3616 30.0451 19.2917 30.0451 19.2239 30.0272C18.9069 29.9435 17.9648 29.6773 17.9648 29.468C17.9648 29.2165 18.7178 28.9475 19.3266 28.9475C19.9354 28.9475 20.6884 29.2165 20.6884 29.468Z" fill="#222327"/>
<path d="M19.1655 22.7763C15.3813 22.7763 13.9906 21.4468 13.7656 20.6692L15.5656 18.7127L19.4655 18.0354L24.8654 20.6692C24.5404 21.2963 22.9539 22.7763 19.1655 22.7763Z" fill="#222327"/>
<path fill-rule="evenodd" clip-rule="evenodd" d="M19.6888 36.9992C27.5088 36.9992 33.2417 34.7952 33.2417 28.8659C33.2417 21.4484 27.5088 15.8528 19.6888 15.8528C11.8688 15.8528 6.26562 21.969 6.26562 28.8659C6.26562 34.7952 11.8688 36.9992 19.6888 36.9992ZM19.3813 34.7221C25.1336 34.7221 29.3505 33.1081 29.3505 28.7661C29.3505 23.3342 25.1336 19.2364 19.3813 19.2364C13.6291 19.2364 9.50756 23.7154 9.50756 28.7661C9.50756 33.1081 13.6291 34.7221 19.3813 34.7221Z" fill="white"/>
<path d="M70.8926 22.1522H73.9685V25.7408H70.8926V33.0206H66.2786V28.5092C62.9976 29.1757 59.7422 29.5345 55.0001 29.5345H49.6171V26.0228H51.6678V18.743H50.1298V15.2825H64.2792V18.743H62.7413V25.6383C63.9973 25.4845 65.1764 25.3051 66.2786 25.1V15.0262H70.8926V22.1522ZM52.1548 39.1213V31.5083H56.8713V35.5583H71.4052V39.1213H52.1548ZM56.2817 26.0228C56.9225 25.9972 57.5377 25.9972 58.1273 25.9715V18.743H56.2817V26.0228ZM99.6016 23.9465V27.5351H96.5256V39.1213H91.9117V35.0969C88.6306 36.0453 85.3752 36.5836 80.6331 36.5836H76.0192V15.7952H89.1433V19.2557H80.6331V33.0719C85.324 33.0719 88.6563 32.6105 91.9117 31.6877V15.0262H96.5256V23.9465H99.6016ZM125.235 23.9465V27.5351H122.159V39.1213H117.545V15.0262H122.159V23.9465H125.235ZM101.652 36.5836V15.7952H115.058V36.5836H101.652ZM106.266 33.0719H110.496V19.3069H106.266V33.0719ZM144.844 15.0262H149.33V28.9193H144.844V15.0262ZM125.747 26.1766C128.746 25.5614 131.002 24.613 132.258 23.4082L127.285 23.7158V20.3835H133.335V18.743H127.798V15.2825H137.821V19.8965H139.282V15.1544H143.639V28.9193H139.282V23.4851H137.154C135.795 26.1253 132.386 28.3041 127.208 29.6114L125.747 26.1766ZM128.541 35.4558C134.873 35.2251 136.718 33.9178 136.718 31.6877V29.7396H141.332V32.0978C141.332 32.713 141.255 33.3026 141.102 33.8409C144.075 34.0459 147.023 34.4561 149.33 34.9944L148.099 39.1213C145.459 38.1985 141.768 37.3013 138.795 36.8143C136.667 38.2498 133.258 38.9419 129.028 39.1213L128.541 35.4558Z" fill="#3692FF"/>
</svg>
